<?xml version="1.0"?>
<!DOCTYPE svg PUBLIC "-//W3C//DTD SVG 1.1//EN" "http://www.w3.org/Graphics/SVG/1.1/DTD/svg11.dtd">
<svg width="512px" height="512px" viewBox="0 0 512 512" xmlns="http://www.w3.org/2000/svg" version="1.1">
<desc>UV-Map from Object: Cube. Exported from Blender3D with UV Exportscript</desc>
<rect x="0" y="0" width="512" height="512" fill="none" stroke="blue" stroke-width="1px" />
<g style="fill:#F2DAF2; stroke:black; stroke-width:1px;">
<polygon points="150.214,169.435 155.577,135.559 143.862,134.902 138.499,168.778 " />
<polygon points="155.577,135.559 161.733,116.684 150.018,116.027 143.862,134.902 " />
<polygon points="173.458,171.943 178.426,140.563 155.577,135.559 150.214,169.435 " />
<polygon points="178.426,140.563 183.744,121.159 161.733,116.684 155.577,135.559 " />
<polygon points="185.867,171.912 194.170,146.554 178.426,140.563 173.458,171.943 " />
<polygon points="194.170,146.554 193.155,125.880 183.744,121.159 178.426,140.563 " />
<polygon points="297.927,227.664 312.615,183.756 276.377,171.232 289.463,224.739 " />
<polygon points="312.615,183.756 326.586,141.992 290.198,135.931 276.377,171.232 " />
<polygon points="236.553,195.214 235.886,160.748 234.943,160.749 225.402,195.215 " />
<polygon points="236.166,223.721 236.553,195.214 225.402,195.215 215.831,223.721 " />
<polygon points="234.788,237.941 236.166,223.721 215.831,223.721 204.287,237.942 " />
<polygon points="474.954,456.742 498.570,456.633 498.468,425.426 475.388,419.732 " />
<polygon points="185.567,226.874 173.368,227.959 173.674,229.486 185.781,227.947 " />
<polygon points="173.368,227.959 150.862,229.141 151.239,231.024 173.674,229.486 " />
<polygon points="462.650,456.785 474.954,456.742 475.388,419.732 463.053,419.776 " />
<polygon points="150.862,229.141 139.042,227.957 139.464,230.067 151.239,231.024 " />
<polygon points="276.380,44.433 278.086,99.545 290.300,97.659 288.593,42.547 " />
<polygon points="278.086,99.545 277.563,130.689 289.776,128.804 290.300,97.659 " />
<polygon points="223.331,159.892 204.131,202.820 225.402,195.215 234.943,160.749 " />
<polygon points="204.131,202.820 204.287,237.942 215.831,223.721 225.402,195.215 " />
<polygon points="288.593,42.547 290.300,97.659 312.425,91.099 311.412,44.174 " />
<polygon points="290.300,97.659 289.776,128.804 312.071,120.898 312.425,91.099 " />
<polygon points="405.701,90.714 422.188,90.656 422.092,53.089 408.495,53.137 " />
<polygon points="457.179,437.192 431.981,438.199 442.894,456.546 456.777,456.026 " />
<polygon points="178.575,4.686 150.390,14.469 162.346,44.768 174.451,50.662 " />
<polygon points="162.346,44.768 150.390,14.469 135.747,20.376 147.703,50.675 " />
<polygon points="408.495,53.137 422.092,53.089 422.066,37.603 403.130,37.670 " />
<polygon points="442.894,456.546 438.305,472.170 457.492,471.451 456.777,456.026 " />
<polygon points="422.066,37.603 422.206,25.138 410.367,25.180 403.130,37.670 " />
<polygon points="457.492,471.451 438.305,472.170 445.346,485.062 457.364,484.611 " />
<polygon points="492.573,6.125 485.442,9.630 485.774,31.958 493.057,38.758 " />
<polygon points="485.442,9.630 473.593,9.670 473.664,31.999 485.774,31.958 " />
<polygon points="30.096,97.568 51.955,50.358 7.471,50.342 " />
<polygon points="55.372,93.899 51.955,50.358 30.096,97.568 " />
<polygon points="30.096,97.568 7.471,50.342 2.579,122.445 " />
<polygon points="473.632,149.659 473.593,203.723 501.460,173.646 " />
<polygon points="495.433,142.261 473.632,149.659 501.460,173.646 " />
<polygon points="473.593,246.727 499.719,281.542 499.715,208.965 " />
<polygon points="305.969,443.312 313.210,442.907 313.734,415.995 306.547,416.762 " />
<polygon points="392.882,130.595 377.754,124.828 367.201,147.368 379.453,152.038 " />
<polygon points="378.761,221.708 367.636,215.458 362.682,244.520 375.528,251.426 " />
<polygon points="98.043,457.289 87.446,457.089 92.513,487.639 105.214,487.936 " />
<polygon points="105.214,487.936 92.513,487.639 96.623,509.045 110.188,509.379 " />
<polygon points="375.528,251.426 362.682,244.520 355.493,264.898 369.027,272.066 " />
<polygon points="64.350,292.458 89.877,293.353 108.276,279.859 75.390,277.084 " />
<polygon points="72.274,326.675 57.528,326.282 59.364,360.510 68.429,360.639 " />
<polygon points="89.877,293.353 64.350,292.458 57.528,326.282 72.274,326.675 " />
<polygon points="113.599,272.490 75.764,269.829 75.390,277.084 108.276,279.859 " />
<polygon points="111.637,270.347 74.497,267.831 75.764,269.829 113.599,272.490 " />
<polygon points="90.336,230.472 80.171,226.124 74.497,267.831 111.637,270.347 " />
<polygon points="124.020,170.418 88.613,168.335 90.051,186.178 127.509,188.413 " />
<polygon points="257.104,75.939 249.634,48.357 238.251,69.021 241.413,78.130 " />
<polygon points="211.383,54.983 204.153,75.796 217.956,78.067 222.150,68.977 " />
<polygon points="60.597,28.042 65.968,28.600 65.901,6.270 60.530,5.712 " />
<polygon points="444.493,28.182 448.851,29.728 448.784,7.718 444.427,6.172 " />
<polygon points="229.186,28.475 226.035,37.559 230.549,43.063 230.529,29.247 " />
<polygon points="210.031,37.510 205.872,28.403 204.157,29.166 204.176,42.982 " />
<polygon points="197.259,100.232 197.257,88.509 183.738,95.058 183.741,110.785 " />
<polygon points="197.271,193.938 198.870,183.839 185.867,171.912 183.721,185.462 " />
<polygon points="148.069,182.985 150.214,169.435 138.499,168.778 136.354,182.328 " />
<polygon points="173.458,171.943 171.312,185.493 183.721,185.462 185.867,171.912 " />
<polygon points="150.214,169.435 148.069,182.985 171.312,185.493 173.458,171.943 " />
<polygon points="292.053,245.226 297.927,227.664 289.463,224.739 285.991,243.131 " />
<polygon points="235.886,160.748 235.804,142.213 234.606,142.213 234.943,160.749 " />
<polygon points="288.593,42.547 288.581,25.379 276.378,27.340 276.380,44.433 " />
<polygon points="311.313,26.369 311.412,44.174 322.855,39.415 323.061,23.827 " />
<polygon points="288.581,25.379 288.593,42.547 311.412,44.174 311.313,26.369 " />
<polygon points="80.833,430.680 89.748,430.802 82.071,401.651 75.361,401.633 " />
<polygon points="306.547,416.762 313.734,415.995 318.777,399.687 311.572,400.334 " />
<polygon points="376.707,167.220 363.504,162.187 358.593,191.125 371.492,196.042 " />
<polygon points="379.453,152.038 367.201,147.368 363.504,162.187 376.707,167.220 " />
<polygon points="83.112,208.566 128.352,210.673 127.509,188.413 90.051,186.178 " />
<polygon points="80.171,226.124 90.336,230.472 128.352,210.673 83.112,208.566 " />
<polygon points="59.364,360.510 42.690,359.733 58.398,385.766 71.902,386.395 " />
<polygon points="42.690,359.733 28.358,360.064 45.558,386.166 58.398,385.766 " />
<polygon points="412.937,138.240 406.519,135.793 390.498,156.248 395.695,158.230 " />
<polygon points="406.519,135.793 392.882,130.595 379.453,152.038 390.498,156.248 " />
<polygon points="407.632,229.838 393.528,227.337 391.846,257.646 406.679,260.425 " />
<polygon points="393.528,227.337 378.761,221.708 375.528,251.426 391.846,257.646 " />
<polygon points="87.446,457.089 69.390,456.248 72.561,486.709 92.513,487.639 " />
<polygon points="69.390,456.248 54.409,456.548 56.687,486.968 72.561,486.709 " />
<polygon points="92.513,487.639 72.561,486.709 75.893,508.082 96.623,509.045 " />
<polygon points="72.561,486.709 56.687,486.968 59.653,508.325 75.893,508.082 " />
<polygon points="406.679,260.425 391.846,257.646 385.965,278.523 401.091,281.413 " />
<polygon points="391.846,257.646 375.528,251.426 369.027,272.066 385.965,278.523 " />
<polygon points="11.524,290.995 32.838,290.990 36.030,275.339 11.663,275.321 " />
<polygon points="32.838,290.990 64.350,292.458 75.390,277.084 36.030,275.339 " />
<polygon points="57.528,326.282 35.733,325.267 42.690,359.733 59.364,360.510 " />
<polygon points="35.733,325.267 18.992,325.485 28.358,360.064 42.690,359.733 " />
<polygon points="64.350,292.458 32.838,290.990 35.733,325.267 57.528,326.282 " />
<polygon points="32.838,290.990 11.524,290.995 18.992,325.485 35.733,325.267 " />
<polygon points="75.764,269.829 36.395,267.995 36.030,275.339 75.390,277.084 " />
<polygon points="36.395,267.995 13.913,267.844 11.663,275.321 36.030,275.339 " />
<polygon points="74.497,267.831 37.201,265.973 36.395,267.995 75.764,269.829 " />
<polygon points="37.201,265.973 13.438,265.826 13.913,267.844 36.395,267.995 " />
<polygon points="40.915,224.295 21.499,224.049 13.438,265.826 37.201,265.973 " />
<polygon points="54.156,166.729 32.942,165.741 28.288,183.301 48.052,184.222 " />
<polygon points="246.230,111.904 257.045,100.783 238.210,86.325 234.690,89.284 " />
<polygon points="257.045,100.783 257.104,75.939 241.413,78.130 238.210,86.325 " />
<polygon points="204.153,75.796 204.131,100.640 220.744,86.278 217.956,78.067 " />
<polygon points="204.131,100.640 216.308,112.364 223.271,88.585 220.744,86.278 " />
<polygon points="65.968,28.600 74.301,28.706 74.233,6.376 65.901,6.270 " />
<polygon points="74.301,28.706 77.566,28.631 77.498,6.301 74.233,6.376 " />
<polygon points="431.887,27.735 436.423,27.617 436.357,5.607 431.820,5.725 " />
<polygon points="436.423,27.617 444.493,28.182 444.427,6.172 436.357,5.607 " />
<polygon points="222.514,17.290 226.010,20.267 230.511,16.794 230.503,10.934 " />
<polygon points="226.010,20.267 229.186,28.475 230.529,29.247 230.511,16.794 " />
<polygon points="205.872,28.403 208.650,20.214 204.139,16.713 204.157,29.166 " />
<polygon points="208.650,20.214 211.164,17.923 204.131,10.852 204.139,16.713 " />
<polygon points="197.257,88.509 197.255,77.942 183.735,80.881 183.738,95.058 " />
<polygon points="197.255,77.942 197.254,72.969 183.734,74.209 183.735,80.881 " />
<polygon points="195.152,207.325 195.830,203.041 181.788,197.675 180.878,203.422 " />
<polygon points="195.830,203.041 197.271,193.938 183.721,185.462 181.788,197.675 " />
<polygon points="145.225,200.946 146.135,195.198 134.420,194.541 133.510,200.288 " />
<polygon points="146.135,195.198 148.069,182.985 136.354,182.328 134.420,194.541 " />
<polygon points="171.312,185.493 169.379,197.706 181.788,197.675 183.721,185.462 " />
<polygon points="169.379,197.706 168.469,203.453 180.878,203.422 181.788,197.675 " />
<polygon points="148.069,182.985 146.135,195.198 169.379,197.706 171.312,185.493 " />
<polygon points="146.135,195.198 145.225,200.946 168.469,203.453 169.379,197.706 " />
<polygon points="284.265,268.506 286.757,261.057 282.861,259.710 281.388,267.512 " />
<polygon points="286.757,261.057 292.053,245.226 285.991,243.131 282.861,259.710 " />
<polygon points="235.804,142.213 235.730,125.505 234.302,125.505 234.606,142.213 " />
<polygon points="235.730,125.505 235.695,117.643 234.159,117.643 234.302,125.505 " />
<polygon points="288.581,25.379 288.570,9.903 276.377,11.933 276.378,27.340 " />
<polygon points="288.570,9.903 288.566,2.621 276.377,4.682 276.377,11.933 " />
<polygon points="311.181,2.766 311.223,10.319 323.246,9.775 323.334,3.163 " />
<polygon points="311.223,10.319 311.313,26.369 323.061,23.827 323.246,9.775 " />
<polygon points="288.566,2.621 288.570,9.903 311.223,10.319 311.181,2.766 " />
<polygon points="288.570,9.903 288.581,25.379 311.313,26.369 311.223,10.319 " />
<polygon points="75.361,401.633 60.810,400.955 64.295,429.910 80.833,430.680 " />
<polygon points="60.810,400.955 47.478,401.332 50.027,430.243 64.295,429.910 " />
<polygon points="71.902,386.395 58.398,385.766 60.810,400.955 75.361,401.633 " />
<polygon points="58.398,385.766 45.558,386.166 47.478,401.332 60.810,400.955 " />
<polygon points="394.207,173.891 388.607,171.756 385.018,201.198 391.014,203.484 " />
<polygon points="388.607,171.756 376.707,167.220 371.492,196.042 385.018,201.198 " />
<polygon points="395.695,158.230 390.498,156.248 388.607,171.756 394.207,173.891 " />
<polygon points="390.498,156.248 379.453,152.038 376.707,167.220 388.607,171.756 " />
<polygon points="23.144,205.772 42.334,206.666 48.052,184.222 28.288,183.301 " />
<polygon points="21.499,224.049 40.915,224.295 42.334,206.666 23.144,205.772 " />
<polygon points="498.261,402.773 498.298,360.141 469.266,370.780 472.932,401.383 " />
<polygon points="204.220,504.403 250.273,509.379 253.870,472.207 207.816,467.231 " />
<polygon points="153.579,509.379 198.471,506.503 194.038,459.632 149.287,463.998 " />
<polygon points="427.488,281.542 468.435,270.896 458.319,234.146 427.501,234.452 " />
<polygon points="427.501,234.452 458.319,234.146 453.768,180.205 431.339,180.428 " />
<polygon points="149.287,463.998 194.038,459.632 182.598,406.434 150.029,409.612 " />
<polygon points="207.816,467.231 253.870,472.207 252.903,417.624 219.386,414.003 " />
<polygon points="55.372,11.196 24.446,11.178 26.404,45.088 48.911,45.101 " />
<polygon points="257.469,12.128 235.707,8.325 235.716,39.048 258.689,43.063 " />
<polygon points="219.386,414.003 252.903,417.624 258.547,374.025 223.165,370.202 " />
<polygon points="150.029,409.612 182.598,406.434 179.394,362.540 145.013,365.895 " />
<polygon points="431.339,180.428 453.768,180.205 453.381,136.168 429.704,136.403 " />
<polygon points="429.704,136.403 453.381,136.168 449.093,87.598 433.748,87.751 " />
<polygon points="145.013,365.895 179.394,362.540 168.503,314.681 146.222,316.855 " />
<polygon points="223.165,370.202 258.547,374.025 257.062,324.793 234.132,322.315 " />
<polygon points="497.328,44.000 473.593,45.096 477.258,76.000 492.640,75.289 " />
<polygon points="198.840,4.562 183.734,4.584 187.134,26.298 194.821,28.145 " />
<polygon points="234.132,322.315 257.062,324.793 271.218,305.062 224.999,300.068 " />
<polygon points="146.222,316.855 168.503,314.681 178.422,293.277 133.510,297.659 " />
<polygon points="433.748,87.751 449.093,87.598 441.388,66.849 433.476,67.397 " />
<polygon points="19.288,45.070 19.275,35.589 11.357,35.620 11.365,45.101 " />
<polygon points="178.422,293.277 176.221,276.969 134.485,281.041 133.510,297.659 " />
<polygon points="176.221,276.969 174.955,267.595 135.045,271.489 134.485,281.041 " />
<polygon points="271.218,305.062 270.215,288.361 227.264,283.720 224.999,300.068 " />
<polygon points="270.215,288.361 269.639,278.761 228.567,274.323 227.264,283.720 " />
<polygon points="328.492,73.480 328.496,84.429 336.195,81.913 336.181,70.796 " />
<polygon points="328.496,84.429 328.498,90.723 336.203,88.303 336.195,81.913 " />
<polygon points="461.894,3.493 454.009,3.255 456.528,18.188 461.896,17.822 " />
<polygon points="176.221,276.969 178.422,293.277 193.013,273.212 185.362,265.216 " />
<polygon points="224.999,300.068 227.264,283.720 218.066,272.865 210.399,280.879 " />
<polygon points="433.476,67.397 441.388,66.849 441.456,49.173 436.110,48.861 " />
<polygon points="436.110,48.861 441.456,49.173 441.644,40.076 438.615,39.900 " />
<polygon points="210.399,280.879 218.066,272.865 208.475,266.599 204.131,271.139 " />
<polygon points="185.362,265.216 193.013,273.212 198.972,263.604 194.637,259.074 " />
<polygon points="461.896,17.822 456.528,18.188 458.552,29.728 461.593,29.520 " />
<polygon points="441.644,40.076 441.479,35.123 438.452,34.969 438.615,39.900 " />
<polygon points="11.357,35.620 19.275,35.589 18.431,10.965 13.164,10.985 " />
<polygon points="135.045,271.489 174.955,267.595 165.642,243.683 139.095,246.274 " />
<polygon points="228.567,274.323 269.639,278.761 264.975,253.443 237.655,250.492 " />
<polygon points="336.203,88.303 328.498,90.723 329.951,109.289 335.076,107.679 " />
<polygon points="335.076,107.679 329.951,109.289 331.455,118.749 334.123,117.911 " />
<polygon points="237.655,250.492 264.975,253.443 258.925,244.720 244.701,243.184 " />
<polygon points="139.095,246.274 165.642,243.683 158.231,236.265 144.409,237.614 " />
<polygon points="13.164,10.985 18.431,10.965 17.694,2.987 14.952,2.998 " />
<polygon points="334.870,130.220 334.123,117.911 331.455,118.749 332.180,130.689 " />
<polygon points="408.367,402.773 428.670,376.658 409.846,348.923 403.311,356.900 " />
<polygon points="38.767,146.507 32.942,165.741 54.156,166.729 50.440,141.354 " />
<polygon points="88.613,168.335 77.151,160.158 76.051,185.526 90.051,186.178 " />
<polygon points="65.665,159.623 54.156,166.729 48.052,184.222 62.052,184.874 " />
<polygon points="42.334,206.666 55.927,207.299 62.052,184.874 48.052,184.222 " />
<polygon points="69.520,207.933 83.112,208.566 90.051,186.178 76.051,185.526 " />
<polygon points="69.520,207.933 55.927,207.299 40.915,224.295 80.171,226.124 " />
<polygon points="83.112,208.566 69.520,207.933 80.171,226.124 " />
<polygon points="55.927,207.299 42.334,206.666 40.915,224.295 " />
<polygon points="65.665,159.623 77.151,160.158 80.886,142.916 50.440,141.354 " />
<polygon points="54.156,166.729 65.665,159.623 50.440,141.354 " />
<polygon points="77.151,160.158 88.613,168.335 80.886,142.916 " />
<polygon points="350.995,119.586 364.137,102.080 362.023,61.933 350.971,77.893 " />
<polygon points="81.674,52.803 67.097,33.947 60.611,71.880 76.269,89.149 " />
<polygon points="97.526,73.650 81.674,52.803 76.269,89.149 101.326,101.079 " />
<polygon points="364.137,102.080 380.985,83.216 375.598,49.597 362.023,61.933 " />
<polygon points="55.927,207.299 69.520,207.933 60.123,174.226 45.690,172.704 " />
<polygon points="479.885,137.020 491.323,129.637 485.890,121.532 473.593,115.724 " />
<polygon points="473.593,115.724 485.890,121.532 491.324,95.490 485.097,95.067 " />
<polygon points="45.690,172.704 60.123,174.226 66.440,141.347 59.169,139.998 " />
<polygon points="336.567,34.921 328.492,58.625 342.584,65.555 342.577,45.647 " />
<polygon points="101.326,101.079 76.269,89.149 65.789,107.146 81.084,121.462 " />
<polygon points="76.269,89.149 60.611,71.880 60.530,109.537 65.789,107.146 " />
<polygon points="350.971,77.893 362.023,61.933 360.321,45.734 358.076,43.353 " />
<polygon points="358.076,43.353 360.321,45.734 362.561,30.759 360.783,31.861 " />
<polygon points="65.789,107.146 60.530,109.537 63.970,120.636 67.000,121.810 " />
<polygon points="81.084,121.462 65.789,107.146 67.000,121.810 69.520,122.445 " />
<polygon points="360.321,45.734 372.684,32.497 364.310,30.257 362.561,30.759 " />
<polygon points="59.169,139.998 66.440,141.347 69.722,130.141 67.521,129.733 " />
<polygon points="485.097,95.067 491.324,95.490 489.627,83.338 487.743,83.210 " />
<polygon points="487.743,83.210 489.627,83.338 490.686,81.397 488.389,81.241 " />
<polygon points="67.521,129.733 69.722,130.141 71.357,128.107 69.090,127.687 " />
<polygon points="363.003,8.449 363.004,10.251 380.978,7.296 380.977,3.683 " />
<polygon points="363.004,10.251 363.010,25.016 380.985,23.945 380.978,7.296 " />
<polygon points="306.547,416.762 297.852,416.326 299.045,442.665 305.969,443.312 " />
<polygon points="297.852,416.326 281.564,418.269 284.601,444.388 299.045,442.665 " />
<polygon points="299.566,342.856 312.978,341.256 315.701,309.481 300.437,311.302 " />
<polygon points="312.978,341.256 326.110,341.163 330.611,309.176 315.701,309.481 " />
<polygon points="420.736,229.965 415.144,229.971 415.490,260.557 422.330,260.550 " />
<polygon points="415.144,229.971 407.632,229.838 406.679,260.425 415.490,260.557 " />
<polygon points="422.330,260.550 415.490,260.557 412.751,281.542 422.327,281.532 " />
<polygon points="415.490,260.557 406.679,260.425 401.091,281.413 412.751,281.542 " />
<polygon points="300.437,311.302 315.701,309.481 315.004,287.560 295.632,289.870 " />
<polygon points="315.701,309.481 330.611,309.176 333.861,286.783 315.004,287.560 " />
<polygon points="106.484,22.699 113.113,39.756 128.183,35.603 128.178,23.190 " />
<polygon points="113.113,39.756 113.124,65.149 128.195,65.770 128.183,35.603 " />
<polygon points="377.184,358.101 360.281,362.422 354.444,377.814 374.525,372.682 " />
<polygon points="5.234,291.670 11.524,290.995 11.663,275.321 3.776,275.991 " />
<polygon points="368.741,331.231 373.339,330.055 388.045,297.880 386.846,298.187 " />
<polygon points="373.339,330.055 386.705,326.639 397.873,295.368 388.045,297.880 " />
<polygon points="352.284,364.466 360.281,362.422 373.339,330.055 368.741,331.231 " />
<polygon points="360.281,362.422 377.184,358.101 386.705,326.639 373.339,330.055 " />
<polygon points="288.434,477.589 308.077,475.246 299.045,442.665 284.601,444.388 " />
<polygon points="308.077,475.246 319.997,475.297 305.969,443.312 299.045,442.665 " />
<polygon points="292.053,509.379 316.896,506.416 308.077,475.246 288.434,477.589 " />
<polygon points="316.896,506.416 333.810,505.872 319.997,475.297 308.077,475.246 " />
<polygon points="13.913,267.844 2.579,268.772 3.776,275.991 11.663,275.321 " />
<polygon points="353.517,384.749 373.748,379.578 374.525,372.682 354.444,377.814 " />
<polygon points="269.196,112.388 269.096,81.970 262.304,82.209 262.403,112.401 " />
<polygon points="269.096,81.970 269.036,63.909 262.263,69.785 262.304,82.209 " />
<polygon points="13.438,265.826 2.594,266.839 2.579,268.772 13.913,267.844 " />
<polygon points="353.559,386.655 373.544,381.441 373.748,379.578 353.517,384.749 " />
<polygon points="344.698,130.689 344.697,100.421 341.362,100.269 341.363,130.477 " />
<polygon points="344.697,100.421 344.697,81.029 341.361,82.333 341.362,100.269 " />
<polygon points="21.499,224.049 5.735,227.847 2.594,266.839 13.438,265.826 " />
<polygon points="351.153,425.715 375.719,412.187 373.544,381.441 353.559,386.655 " />
<polygon points="500.059,353.718 504.826,316.697 469.330,323.333 469.430,353.813 " />
<polygon points="504.826,316.697 509.421,295.368 469.266,303.806 469.330,323.333 " />
<polygon points="353.808,491.615 369.724,486.838 366.023,472.367 345.964,473.758 " />
<polygon points="369.724,486.838 389.387,481.320 386.901,470.920 366.023,472.367 " />
<polygon points="249.634,48.357 230.145,48.304 229.349,66.775 238.251,69.021 " />
<polygon points="230.145,48.304 211.383,54.983 222.150,68.977 229.349,66.775 " />
<polygon points="216.308,112.364 230.040,112.401 229.293,90.161 223.271,88.585 " />
<polygon points="230.040,112.401 246.230,111.904 234.690,89.284 229.293,90.161 " />
<polygon points="77.566,28.631 82.070,28.319 82.003,5.989 77.498,6.301 " />
<polygon points="427.555,28.364 431.887,27.735 431.820,5.725 427.488,6.354 " />
<polygon points="344.675,7.214 335.766,7.381 335.698,29.680 344.607,29.513 " />
<polygon points="335.766,7.381 328.560,7.169 328.492,29.467 335.698,29.680 " />
<polygon points="226.035,37.559 217.184,39.753 217.099,43.022 230.549,43.063 " />
<polygon points="217.184,39.753 210.031,37.510 204.176,42.982 217.099,43.022 " />
<polygon points="211.164,17.923 217.151,16.382 217.053,10.892 204.131,10.852 " />
<polygon points="217.151,16.382 222.514,17.290 230.503,10.934 217.053,10.892 " />
<polygon points="198.836,225.751 197.030,216.723 183.269,215.383 185.567,226.874 " />
<polygon points="197.030,216.723 195.152,207.325 180.878,203.422 183.269,215.383 " />
<polygon points="198.299,61.745 198.336,47.983 183.782,50.214 183.734,67.728 " />
<polygon points="198.336,47.983 198.373,34.762 183.828,33.386 183.782,50.214 " />
<polygon points="150.862,229.141 148.100,215.325 136.331,214.399 139.042,227.957 " />
<polygon points="148.100,215.325 145.225,200.946 133.510,200.288 136.331,214.399 " />
<polygon points="475.602,485.062 475.272,470.619 462.951,470.284 463.265,484.334 " />
<polygon points="475.272,470.619 474.954,456.742 462.650,456.785 462.951,470.284 " />
<polygon points="168.469,203.453 170.968,215.952 183.269,215.383 180.878,203.422 " />
<polygon points="170.968,215.952 173.368,227.959 185.567,226.874 183.269,215.383 " />
<polygon points="145.225,200.946 148.100,215.325 170.968,215.952 168.469,203.453 " />
<polygon points="148.100,215.325 150.862,229.141 173.368,227.959 170.968,215.952 " />
<polygon points="234.788,237.941 247.576,237.941 252.612,223.720 236.166,223.721 " />
<polygon points="247.576,237.941 260.887,237.940 269.730,223.719 252.612,223.720 " />
<polygon points="474.954,456.742 475.272,470.619 498.613,469.718 498.570,456.633 " />
<polygon points="475.272,470.619 475.602,485.062 498.658,483.336 498.613,469.718 " />
<polygon points="236.553,195.214 253.000,195.214 252.333,160.748 235.886,160.748 " />
<polygon points="253.000,195.214 270.118,195.213 269.451,160.747 252.333,160.748 " />
<polygon points="236.166,223.721 252.612,223.720 253.000,195.214 236.553,195.214 " />
<polygon points="252.612,223.720 269.730,223.719 270.118,195.213 253.000,195.214 " />
<polygon points="350.335,196.792 331.098,190.144 316.410,234.052 335.647,240.700 " />
<polygon points="331.098,190.144 312.615,183.756 297.927,227.664 316.410,234.052 " />
<polygon points="350.299,156.702 338.205,149.200 331.098,190.144 350.335,196.792 " />
<polygon points="338.205,149.200 326.586,141.992 312.615,183.756 331.098,190.144 " />
<polygon points="412.906,173.872 413.335,173.871 409.162,203.606 417.743,203.597 " />
<polygon points="413.335,173.871 394.207,173.891 391.014,203.484 409.162,203.606 " />
<polygon points="409.603,158.215 407.123,158.218 413.335,173.871 412.906,173.872 " />
<polygon points="407.123,158.218 395.695,158.230 394.207,173.891 413.335,173.871 " />
<polygon points="311.572,400.334 299.531,400.298 297.852,416.326 306.547,416.762 " />
<polygon points="299.531,400.298 279.760,402.656 281.564,418.269 297.852,416.326 " />
<polygon points="319.067,369.391 301.676,369.992 299.531,400.298 311.572,400.334 " />
<polygon points="301.676,369.992 276.377,373.278 279.760,402.656 299.531,400.298 " />
<polygon points="151.623,110.702 151.526,80.942 133.668,79.713 135.145,110.785 " />
<polygon points="151.526,80.942 151.449,57.738 133.510,55.916 133.668,79.713 " />
<polygon points="426.902,414.245 431.981,438.199 457.179,437.192 " />
<polygon points="457.416,413.048 426.902,414.245 457.179,437.192 " />
<polygon points="426.902,414.245 403.311,408.014 431.981,438.199 " />
<polygon points="386.143,119.586 422.188,90.656 405.701,90.714 " />
<polygon points="2.579,122.445 7.098,85.561 7.471,50.342 " />
<polygon points="386.143,119.586 422.330,119.486 422.188,90.656 " />
<polygon points="380.716,440.496 359.932,445.809 366.023,472.367 386.901,470.920 " />
<polygon points="359.932,445.809 339.962,450.913 345.964,473.758 366.023,472.367 " />
<polygon points="375.719,412.187 351.153,425.715 359.932,445.809 380.716,440.496 " />
<polygon points="351.153,425.715 339.019,432.645 339.962,450.913 359.932,445.809 " />
<polygon points="292.053,245.226 310.535,251.614 316.410,234.052 297.927,227.664 " />
<polygon points="310.535,251.614 329.772,258.262 335.647,240.700 316.410,234.052 " />
<polygon points="286.757,261.057 305.240,267.444 310.535,251.614 292.053,245.226 " />
<polygon points="305.240,267.444 324.477,274.093 329.772,258.262 310.535,251.614 " />
<polygon points="284.265,268.506 302.748,274.894 305.240,267.444 286.757,261.057 " />
<polygon points="302.748,274.894 321.985,281.542 324.477,274.093 305.240,267.444 " />
<polygon points="38.767,146.507 21.894,144.856 16.908,167.176 32.942,165.741 " />
<polygon points="379.458,509.379 398.153,507.125 389.387,481.320 369.724,486.838 " />
<polygon points="464.108,347.667 436.340,348.337 439.543,389.857 463.133,390.077 " />
<polygon points="436.340,348.337 409.846,348.923 428.670,376.658 439.543,389.857 " />
<polygon points="409.846,348.923 436.340,348.337 436.288,312.292 409.801,312.271 " />
<polygon points="436.340,348.337 464.108,347.667 464.049,312.253 436.288,312.292 " />
<polygon points="409.801,312.271 436.288,312.292 436.004,295.368 416.678,303.320 " />
<polygon points="436.288,312.292 464.049,312.253 463.570,295.528 436.004,295.368 " />
<polygon points="151.449,57.738 151.526,80.942 177.497,86.446 178.575,75.215 " />
<polygon points="151.526,80.942 151.623,110.702 177.577,110.583 177.497,86.446 " />
<polygon points="93.854,443.913 89.748,430.802 80.833,430.680 84.106,443.753 " />
<polygon points="84.106,443.753 87.446,457.089 98.043,457.289 93.854,443.913 " />
<polygon points="126.758,73.572 106.508,71.011 110.898,92.332 127.341,92.483 " />
<polygon points="367.599,203.165 367.636,215.458 378.761,221.708 379.620,208.742 " />
<polygon points="64.295,429.910 66.817,442.947 84.106,443.753 80.833,430.680 " />
<polygon points="66.817,442.947 69.390,456.248 87.446,457.089 84.106,443.753 " />
<polygon points="50.027,430.243 52.196,443.264 66.817,442.947 64.295,429.910 " />
<polygon points="52.196,443.264 54.409,456.548 69.390,456.248 66.817,442.947 " />
<polygon points="127.953,112.313 111.537,113.062 106.484,122.445 128.224,121.104 " />
<polygon points="393.760,214.132 393.528,227.337 407.632,229.838 403.770,216.524 " />
<polygon points="127.341,92.483 110.898,92.332 111.537,113.062 127.953,112.313 " />
<polygon points="379.620,208.742 378.761,221.708 393.528,227.337 393.760,214.132 " />
<polygon points="409.162,203.606 412.123,216.657 419.224,216.649 417.743,203.597 " />
<polygon points="412.123,216.657 415.144,229.971 420.736,229.965 419.224,216.649 " />
<polygon points="391.014,203.484 403.770,216.524 412.123,216.657 409.162,203.606 " />
<polygon points="403.770,216.524 407.632,229.838 415.144,229.971 412.123,216.657 " />
<polygon points="301.676,369.992 307.271,355.768 294.311,357.449 276.377,373.278 " />
<polygon points="307.271,355.768 312.978,341.256 299.566,342.856 294.311,357.449 " />
<polygon points="319.067,369.391 322.553,355.418 307.271,355.768 301.676,369.992 " />
<polygon points="322.553,355.418 326.110,341.163 312.978,341.256 307.271,355.768 " />
</g>
</svg>