<?xml version="1.0"?>
<!DOCTYPE svg PUBLIC "-//W3C//DTD SVG 1.1//EN" "http://www.w3.org/Graphics/SVG/1.1/DTD/svg11.dtd">
<svg width="512px" height="512px" viewBox="0 0 512 512" xmlns="http://www.w3.org/2000/svg" version="1.1">
<desc>UV-Map from Object: Cube. Exported from Blender3D with UV Exportscript</desc>
<rect x="0" y="0" width="512" height="512" fill="none" stroke="blue" stroke-width="1px" />
<g style="fill:#F2DAF2; stroke:black; stroke-width:1px;">
<polygon points="369.229,223.862 369.225,195.630 361.678,194.493 361.682,222.725 " />
<polygon points="361.678,312.073 369.229,310.929 369.247,282.740 361.697,283.884 " />
<polygon points="369.225,195.630 369.583,171.981 362.036,170.844 361.678,194.493 " />
<polygon points="361.993,335.837 369.544,334.693 369.229,310.929 361.678,312.073 " />
<polygon points="383.446,222.865 383.443,196.713 369.225,195.630 369.229,223.862 " />
<polygon points="369.229,310.929 383.437,309.910 383.454,283.798 369.247,282.740 " />
<polygon points="383.443,196.713 383.697,174.927 369.583,171.981 369.225,195.630 " />
<polygon points="369.544,334.693 383.657,331.771 383.437,309.910 369.229,310.929 " />
<polygon points="391.069,222.012 393.770,200.921 383.443,196.713 383.446,222.865 " />
<polygon points="383.437,309.910 393.764,305.727 391.074,284.667 383.454,283.798 " />
<polygon points="393.770,200.921 391.065,183.649 383.697,174.927 383.443,196.713 " />
<polygon points="383.657,331.771 391.050,322.972 393.764,305.727 383.437,309.910 " />
<polygon points="113.524,250.456 114.174,222.164 90.447,221.618 107.982,250.329 " />
<polygon points="203.787,202.957 227.520,202.920 227.476,174.620 221.933,174.628 " />
<polygon points="114.174,222.164 114.792,195.253 92.160,198.496 90.447,221.618 " />
<polygon points="205.004,226.109 227.562,229.838 227.520,202.920 203.787,202.957 " />
<polygon points="338.348,123.047 343.322,143.422 343.894,143.282 345.102,121.385 " />
<polygon points="112.209,162.744 112.792,162.826 115.731,142.058 108.843,141.091 " />
<polygon points="334.177,106.129 338.348,123.047 345.102,121.385 346.495,103.097 " />
<polygon points="108.843,141.091 115.731,142.058 118.136,124.799 105.574,123.036 " />
<polygon points="332.026,97.604 334.177,106.129 346.495,103.097 350.503,93.057 " />
<polygon points="105.574,123.036 118.136,124.799 119.301,116.085 100.459,113.440 " />
<polygon points="335.641,69.365 350.464,69.322 350.406,50.277 336.056,46.793 " />
<polygon points="463.985,332.354 464.044,313.310 449.221,313.262 449.635,335.837 " />
<polygon points="432.733,188.396 432.698,180.803 431.336,180.807 431.775,188.399 " />
<polygon points="262.919,77.114 264.281,77.118 264.294,69.525 263.336,69.522 " />
<polygon points="432.698,180.803 432.644,166.711 430.963,166.716 431.336,180.807 " />
<polygon points="262.568,91.206 264.249,91.211 264.281,77.118 262.919,77.114 " />
<polygon points="328.016,69.388 335.641,69.365 336.056,46.793 328.405,46.816 " />
<polygon points="449.635,335.837 449.221,313.262 441.597,313.238 441.983,335.813 " />
<polygon points="432.644,166.711 432.636,159.125 430.752,159.131 430.963,166.716 " />
<polygon points="262.327,98.790 264.211,98.796 264.249,91.211 262.568,91.206 " />
<polygon points="361.985,114.697 361.696,141.283 369.245,140.042 369.534,113.456 " />
<polygon points="400.714,420.452 393.167,419.209 393.505,446.186 401.052,447.429 " />
<polygon points="361.696,141.283 362.157,164.447 369.705,163.206 369.245,140.042 " />
<polygon points="401.191,397.276 393.645,396.033 393.167,419.209 400.714,420.452 " />
<polygon points="467.404,37.766 467.343,62.811 478.074,59.417 475.273,38.970 " />
<polygon points="156.468,85.822 145.709,82.157 145.722,107.473 153.616,106.414 " />
<polygon points="467.343,62.811 467.722,84.172 475.428,76.206 478.074,59.417 " />
<polygon points="153.864,68.889 146.166,60.765 145.709,82.157 156.468,85.822 " />
<polygon points="369.534,113.456 369.245,140.042 383.493,138.885 383.554,113.840 " />
<polygon points="414.976,421.700 400.714,420.452 401.052,447.429 415.066,447.016 " />
<polygon points="369.245,140.042 369.705,163.206 383.872,160.246 383.493,138.885 " />
<polygon points="415.367,400.307 401.191,397.276 400.714,420.452 414.976,421.700 " />
<polygon points="295.086,122.892 284.863,122.877 284.829,145.803 293.259,145.816 " />
<polygon points="284.829,145.803 284.863,122.877 274.641,122.861 276.398,145.790 " />
<polygon points="32.226,160.713 32.191,145.096 20.682,152.067 20.671,160.741 " />
<polygon points="20.660,169.414 32.152,176.345 32.226,160.713 20.671,160.741 " />
<polygon points="441.597,257.468 442.268,280.457 462.131,279.417 466.974,267.579 " />
<polygon points="382.227,59.229 362.369,58.192 361.678,81.182 387.036,70.952 " />
<polygon points="462.131,279.417 442.268,280.457 442.580,289.572 462.443,288.532 " />
<polygon points="362.673,48.999 362.369,58.192 382.227,59.229 382.530,50.037 " />
<polygon points="293.259,145.816 284.829,145.803 284.814,155.253 296.556,155.271 " />
<polygon points="284.814,155.253 284.829,145.803 276.398,145.790 273.073,155.235 " />
<polygon points="20.682,152.067 11.285,148.734 11.270,160.721 20.671,160.741 " />
<polygon points="11.270,160.721 11.255,172.709 20.660,169.414 20.671,160.741 " />
<polygon points="284.814,155.253 284.803,162.862 292.144,162.874 296.556,155.271 " />
<polygon points="277.463,162.851 284.803,162.862 284.814,155.253 273.073,155.235 " />
<polygon points="11.270,160.721 11.285,148.734 3.215,153.226 3.205,160.735 " />
<polygon points="3.196,168.243 11.255,172.709 11.270,160.721 3.205,160.735 " />
<polygon points="494.042,405.240 502.122,402.691 502.120,389.071 494.039,385.333 " />
<polygon points="502.078,502.989 502.078,489.371 494.069,486.798 494.069,506.700 " />
<polygon points="122.530,15.560 122.552,22.907 136.139,22.866 136.117,15.357 " />
<polygon points="136.139,22.866 122.552,22.907 122.574,30.254 136.162,30.374 " />
<polygon points="106.039,38.204 126.978,61.531 127.007,36.771 " />
<polygon points="448.874,504.574 448.839,479.816 426.322,503.496 " />
<polygon points="487.678,489.953 474.860,482.124 474.892,506.700 " />
<polygon points="448.209,22.176 448.159,46.594 460.951,38.549 " />
<polygon points="476.953,367.547 461.763,346.071 461.760,390.488 " />
<polygon points="461.080,429.003 461.085,473.419 477.594,452.858 " />
<polygon points="491.425,207.983 481.820,206.006 484.872,223.233 492.013,224.509 " />
<polygon points="487.517,66.919 484.465,84.172 494.003,82.207 494.588,65.662 " />
<polygon points="411.058,389.524 424.555,389.439 429.734,373.767 418.803,373.836 " />
<polygon points="36.038,110.564 50.919,109.218 51.344,90.271 34.936,91.777 " />
<polygon points="94.067,94.853 93.537,75.887 78.588,74.554 77.594,93.364 " />
<polygon points="150.147,475.604 139.246,476.255 139.346,495.398 151.779,494.757 " />
<polygon points="52.405,297.156 52.208,316.315 63.040,316.990 64.772,297.821 " />
<polygon points="151.779,494.757 139.346,495.398 139.801,508.802 152.845,508.166 " />
<polygon points="52.929,283.740 52.405,297.156 64.772,297.821 65.908,284.401 " />
<polygon points="34.936,91.777 51.344,90.271 51.320,76.886 34.302,78.456 " />
<polygon points="94.056,108.232 94.067,94.853 77.594,93.364 76.972,106.681 " />
<polygon points="127.328,375.379 149.105,374.801 162.466,366.129 131.790,366.315 " />
<polygon points="75.245,426.480 61.863,417.803 40.139,417.196 44.703,426.241 " />
<polygon points="140.832,394.829 126.909,395.460 132.797,415.584 142.581,414.925 " />
<polygon points="45.372,377.051 39.597,397.143 53.456,397.799 55.086,377.733 " />
<polygon points="149.105,374.801 127.328,375.379 126.909,395.460 140.832,394.829 " />
<polygon points="39.597,397.143 40.139,417.196 61.863,417.803 53.456,397.799 " />
<polygon points="163.788,361.922 131.365,361.987 131.790,366.315 162.466,366.129 " />
<polygon points="44.703,426.241 44.297,430.564 76.638,430.673 75.245,426.480 " />
<polygon points="161.694,360.768 130.390,360.805 131.365,361.987 163.788,361.922 " />
<polygon points="44.297,430.564 43.321,431.745 74.559,431.822 76.638,430.673 " />
<polygon points="169.395,299.625 141.254,299.572 141.184,310.627 171.120,310.675 " />
<polygon points="54.145,481.917 54.185,492.976 82.305,492.950 84.056,481.899 " />
<polygon points="196.008,85.568 191.722,68.646 184.408,81.110 186.253,86.707 " />
<polygon points="127.178,94.407 134.224,107.024 138.871,90.198 129.143,88.850 " />
<polygon points="167.905,72.205 163.185,84.813 171.713,86.373 174.427,80.880 " />
<polygon points="114.599,88.872 106.040,90.249 110.489,102.955 117.194,94.422 " />
<polygon points="55.768,25.322 61.524,25.217 61.482,11.570 55.726,11.675 " />
<polygon points="10.455,12.813 10.497,26.458 16.213,26.540 16.171,12.896 " />
<polygon points="184.535,9.001 178.862,8.912 178.820,22.556 184.493,22.646 " />
<polygon points="145.918,8.283 145.959,21.930 151.661,21.851 151.619,8.204 " />
<polygon points="430.204,409.164 432.187,403.621 429.382,400.270 429.367,408.695 " />
<polygon points="480.692,135.417 477.875,138.762 479.839,144.310 480.677,143.842 " />
<polygon points="442.170,403.634 444.747,409.183 445.819,408.716 445.833,400.291 " />
<polygon points="464.226,143.821 465.296,144.291 467.892,138.749 464.240,135.396 " />
<polygon points="66.339,51.365 66.345,42.961 57.845,46.665 57.837,57.940 " />
<polygon points="162.861,47.002 171.361,50.728 171.360,42.311 162.860,35.710 " />
<polygon points="399.700,236.833 399.699,228.416 391.069,222.012 391.071,233.304 " />
<polygon points="391.074,284.667 399.694,278.343 399.699,269.939 391.081,273.392 " />
<polygon points="369.230,235.154 369.229,223.862 361.682,222.725 361.683,234.017 " />
<polygon points="361.697,283.884 369.247,282.740 369.254,271.465 361.704,272.609 " />
<polygon points="383.446,222.865 383.448,234.157 391.071,233.304 391.069,222.012 " />
<polygon points="391.081,273.392 383.461,272.523 383.454,283.798 391.074,284.667 " />
<polygon points="369.229,223.862 369.230,235.154 383.448,234.157 383.446,222.865 " />
<polygon points="383.461,272.523 369.254,271.465 369.247,282.740 383.454,283.798 " />
<polygon points="113.264,261.773 113.524,250.456 107.982,250.329 109.295,261.681 " />
<polygon points="221.933,174.628 227.476,174.620 227.459,163.300 223.489,163.307 " />
<polygon points="343.322,143.422 346.014,154.400 346.740,154.221 343.894,143.282 " />
<polygon points="110.478,173.915 111.219,174.019 112.792,162.826 112.209,162.744 " />
<polygon points="369.534,113.456 369.406,102.329 361.853,103.562 361.985,114.697 " />
<polygon points="393.373,457.368 400.924,458.605 401.052,447.429 393.505,446.186 " />
<polygon points="383.458,102.778 383.554,113.840 391.424,115.044 391.217,103.757 " />
<polygon points="422.957,445.933 415.066,447.016 414.972,458.142 422.743,457.234 " />
<polygon points="369.406,102.329 369.534,113.456 383.554,113.840 383.458,102.778 " />
<polygon points="415.066,447.016 401.052,447.429 400.924,458.605 414.972,458.142 " />
<polygon points="138.947,459.527 148.622,458.867 147.882,440.433 139.814,441.104 " />
<polygon points="60.520,352.207 61.391,333.749 51.788,333.066 52.525,351.514 " />
<polygon points="492.013,224.509 484.872,223.233 481.782,232.474 489.737,233.981 " />
<polygon points="484.472,57.651 487.517,66.919 494.588,65.662 492.357,56.160 " />
<polygon points="418.665,364.282 430.443,364.208 429.912,346.071 418.404,346.143 " />
<polygon points="418.803,373.836 429.734,373.767 430.443,364.208 418.665,364.282 " />
<polygon points="135.989,324.495 168.707,325.509 171.120,310.675 141.184,310.627 " />
<polygon points="84.056,481.899 81.571,466.984 48.946,468.047 54.145,481.917 " />
<polygon points="128.939,336.103 142.587,337.492 168.707,325.509 135.989,324.495 " />
<polygon points="81.571,466.984 55.518,455.063 42.018,456.410 48.946,468.047 " />
<polygon points="43.106,361.323 33.206,377.127 45.372,377.051 52.960,361.261 " />
<polygon points="185.751,134.090 178.410,132.662 177.512,148.458 184.868,149.886 " />
<polygon points="406.092,215.486 406.787,231.335 414.273,229.832 413.564,213.988 " />
<polygon points="393.167,389.636 398.892,389.600 408.950,373.897 404.313,373.926 " />
<polygon points="398.892,389.600 411.058,389.524 418.803,373.836 408.950,373.897 " />
<polygon points="35.434,257.502 35.442,250.728 16.505,253.464 16.499,260.247 " />
<polygon points="16.596,224.348 35.515,227.179 35.548,220.565 16.630,217.743 " />
<polygon points="77.594,93.364 78.588,74.554 65.502,73.215 63.133,91.884 " />
<polygon points="37.847,297.247 39.034,316.398 52.208,316.315 52.405,297.156 " />
<polygon points="193.652,196.584 186.318,195.156 187.712,214.717 195.037,216.144 " />
<polygon points="415.733,149.197 414.497,168.757 421.989,167.252 423.233,147.689 " />
<polygon points="37.820,283.836 37.847,297.247 52.405,297.156 52.929,283.740 " />
<polygon points="195.037,216.144 187.712,214.717 188.676,228.409 196.008,229.838 " />
<polygon points="416.613,135.499 415.733,149.197 423.233,147.689 424.127,133.988 " />
<polygon points="16.499,260.247 16.505,253.464 3.259,251.986 3.252,258.772 " />
<polygon points="3.340,225.738 16.596,224.348 16.630,217.743 3.375,219.137 " />
<polygon points="76.972,106.681 77.594,93.364 63.133,91.884 61.962,105.145 " />
<polygon points="94.239,374.838 104.371,375.223 103.592,366.096 91.880,365.662 " />
<polygon points="16.449,426.448 17.147,417.340 6.855,417.750 4.558,426.909 " />
<polygon points="44.703,426.241 40.139,417.196 17.147,417.340 16.449,426.448 " />
<polygon points="33.206,377.127 23.695,397.243 39.597,397.143 45.372,377.051 " />
<polygon points="195.968,115.297 188.651,113.870 178.410,132.662 185.751,134.090 " />
<polygon points="406.787,231.335 416.852,250.122 424.361,248.611 414.273,229.832 " />
<polygon points="23.695,397.243 17.147,417.340 40.139,417.196 39.597,397.143 " />
<polygon points="104.371,375.223 94.239,374.838 104.230,394.990 111.031,395.353 " />
<polygon points="16.739,397.632 6.855,417.750 17.147,417.340 23.695,397.243 " />
<polygon points="16.449,426.448 15.573,430.743 44.297,430.564 44.703,426.241 " />
<polygon points="102.685,361.792 91.156,361.430 91.880,365.662 103.592,366.096 " />
<polygon points="4.558,426.909 3.896,431.127 15.573,430.743 16.449,426.448 " />
<polygon points="15.573,430.743 15.473,431.878 43.321,431.745 44.297,430.564 " />
<polygon points="102.567,360.654 90.447,360.267 91.156,361.430 102.685,361.792 " />
<polygon points="3.896,431.127 3.196,432.287 15.473,431.878 15.573,430.743 " />
<polygon points="116.152,299.402 100.697,299.297 96.189,310.322 110.587,310.419 " />
<polygon points="9.081,482.199 13.567,493.230 29.045,493.133 23.502,482.108 " />
<polygon points="188.817,107.374 195.660,100.725 184.165,91.666 181.946,93.428 " />
<polygon points="127.161,83.847 138.848,75.037 132.148,68.243 124.980,82.039 " />
<polygon points="129.143,88.850 138.871,90.198 138.848,75.037 127.161,83.847 " />
<polygon points="116.332,83.864 106.039,75.088 106.040,90.249 114.599,88.872 " />
<polygon points="162.860,99.970 170.262,107.277 174.876,92.857 173.338,91.417 " />
<polygon points="117.900,82.457 113.596,67.941 106.039,75.088 116.332,83.864 " />
<polygon points="5.587,12.923 5.629,26.568 10.497,26.458 10.455,12.813 " />
<polygon points="503.383,146.838 504.934,146.836 504.892,133.178 503.341,133.179 " />
<polygon points="277.867,16.859 277.909,3.200 276.320,3.198 276.278,16.857 " />
<polygon points="503.224,70.505 501.021,70.502 500.979,84.160 503.182,84.163 " />
<polygon points="248.455,4.870 248.497,18.529 250.651,18.526 250.609,4.868 " />
<polygon points="151.619,8.204 151.661,21.851 156.468,21.937 156.427,8.290 " />
<polygon points="434.344,415.978 432.169,414.166 429.354,416.289 429.348,419.862 " />
<polygon points="480.665,151.436 477.857,149.306 475.676,151.112 480.659,155.010 " />
<polygon points="480.677,143.842 479.839,144.310 477.857,149.306 480.665,151.436 " />
<polygon points="464.213,151.415 467.028,149.292 465.296,144.291 464.226,143.821 " />
<polygon points="442.998,414.180 441.426,415.580 445.800,419.883 445.806,416.310 " />
<polygon points="464.207,154.989 468.596,150.696 467.028,149.292 464.213,151.415 " />
<polygon points="162.862,57.181 171.362,58.314 171.361,50.728 162.861,47.002 " />
<polygon points="66.350,35.386 66.352,31.821 57.854,31.719 57.851,36.502 " />
<polygon points="162.863,61.971 171.362,61.884 171.362,58.314 162.862,57.181 " />
<polygon points="399.701,247.990 399.701,244.419 391.072,243.483 391.072,248.273 " />
<polygon points="391.088,263.229 399.704,262.364 399.707,258.799 391.091,258.447 " />
<polygon points="391.081,273.392 399.699,269.939 399.704,262.364 391.088,263.229 " />
<polygon points="369.232,250.122 369.231,245.332 361.684,244.195 361.685,248.985 " />
<polygon points="361.710,262.446 369.261,261.302 369.264,256.519 361.713,257.663 " />
<polygon points="361.704,272.609 369.254,271.465 369.261,261.302 361.710,262.446 " />
<polygon points="391.088,263.229 383.468,262.360 383.461,272.523 391.081,273.392 " />
<polygon points="383.449,244.336 383.449,249.125 391.072,248.273 391.072,243.483 " />
<polygon points="391.091,258.447 383.471,257.577 383.468,262.360 391.088,263.229 " />
<polygon points="383.468,262.360 369.261,261.302 369.254,271.465 383.461,272.523 " />
<polygon points="369.231,245.332 369.232,250.122 383.449,249.125 383.449,244.336 " />
<polygon points="383.471,257.577 369.264,256.519 369.261,261.302 383.468,262.360 " />
<polygon points="112.920,276.773 113.030,271.973 110.479,271.914 111.036,276.730 " />
<polygon points="224.891,153.101 227.443,153.097 227.436,148.296 225.551,148.299 " />
<polygon points="223.489,163.307 227.459,163.300 227.443,153.097 224.891,153.101 " />
<polygon points="108.919,183.984 109.801,184.108 111.219,174.019 110.478,173.915 " />
<polygon points="348.441,164.294 349.583,168.951 350.513,168.722 349.306,164.082 " />
<polygon points="108.185,188.722 109.133,188.856 109.801,184.108 108.919,183.984 " />
<polygon points="393.254,467.447 400.808,468.679 400.924,458.605 393.373,457.368 " />
<polygon points="369.290,92.299 369.236,87.579 361.678,88.802 361.734,93.526 " />
<polygon points="393.197,472.190 400.754,473.419 400.808,468.679 393.254,467.447 " />
<polygon points="383.331,88.113 383.371,92.806 391.030,93.583 390.942,88.795 " />
<polygon points="422.551,467.420 414.888,468.170 414.848,472.889 422.460,472.214 " />
<polygon points="422.743,457.234 414.972,458.142 414.888,468.170 422.551,467.420 " />
<polygon points="369.236,87.579 369.290,92.299 383.371,92.806 383.331,88.113 " />
<polygon points="414.888,468.170 400.808,468.679 400.754,473.419 414.848,472.889 " />
<polygon points="414.972,458.142 400.924,458.605 400.808,468.679 414.888,468.170 " />
<polygon points="39.721,333.142 41.908,351.580 52.525,351.514 51.788,333.066 " />
<polygon points="187.255,160.084 179.904,158.656 183.193,177.778 190.535,179.206 " />
<polygon points="411.498,186.151 408.389,205.279 415.865,203.780 418.983,184.648 " />
<polygon points="41.908,351.580 43.106,361.323 52.960,361.261 52.525,351.514 " />
<polygon points="184.868,149.886 177.512,148.458 179.904,158.656 187.255,160.084 " />
<polygon points="408.389,205.279 406.092,215.486 413.564,213.988 415.865,203.780 " />
<polygon points="403.052,364.379 408.048,364.348 406.337,346.218 400.987,346.252 " />
<polygon points="408.048,364.348 418.665,364.282 418.404,346.143 406.337,346.218 " />
<polygon points="404.313,373.926 408.950,373.897 408.048,364.348 403.052,364.379 " />
<polygon points="408.950,373.897 418.803,373.836 418.665,364.282 408.048,364.348 " />
<polygon points="92.301,324.199 106.281,324.294 110.587,310.419 96.189,310.322 " />
<polygon points="23.502,482.108 19.193,468.234 5.192,468.321 9.081,482.199 " />
<polygon points="91.659,335.315 100.341,335.909 106.281,324.294 92.301,324.199 " />
<polygon points="19.193,468.234 13.376,456.589 4.534,457.210 5.192,468.321 " />
<polygon points="343.173,197.501 342.639,175.348 314.148,178.550 317.531,200.383 " />
<polygon points="303.096,372.495 307.320,344.013 279.511,342.234 278.147,370.075 " />
<polygon points="295.309,404.956 303.096,372.495 278.147,370.075 279.169,403.390 " />
<polygon points="341.826,230.585 343.173,197.501 317.531,200.383 325.237,232.450 " />
<polygon points="346.408,257.113 341.826,230.585 325.237,232.450 326.707,259.327 " />
<polygon points="294.295,431.722 295.309,404.956 279.169,403.390 275.128,429.862 " />
<polygon points="288.625,461.034 294.295,431.722 275.128,429.862 274.823,459.695 " />
<polygon points="346.630,286.797 346.408,257.113 326.707,259.327 332.444,288.391 " />
<polygon points="355.287,298.357 346.630,286.797 332.444,288.391 326.693,301.571 " />
<polygon points="294.755,474.105 288.625,461.034 274.823,459.695 266.934,471.406 " />
<polygon points="267.530,481.506 293.383,484.014 294.755,474.105 266.934,471.406 " />
<polygon points="267.872,487.311 292.594,489.710 293.383,484.014 267.530,481.506 " />
<polygon points="328.088,311.481 354.660,308.494 355.287,298.357 326.693,301.571 " />
<polygon points="328.890,317.177 354.300,314.321 354.660,308.494 328.088,311.481 " />
<polygon points="293.382,194.057 294.755,203.966 303.773,191.624 299.030,186.779 " />
<polygon points="303.774,486.446 294.755,474.105 293.383,484.014 299.031,491.292 " />
<polygon points="326.662,376.372 328.080,366.484 322.447,359.668 317.702,364.453 " />
<polygon points="322.436,318.265 328.088,311.481 326.693,301.571 317.701,313.452 " />
<polygon points="317.702,364.453 322.447,359.668 316.550,355.695 313.862,358.406 " />
<polygon points="316.527,322.209 322.436,318.265 317.701,313.452 313.844,319.482 " />
<polygon points="299.030,186.779 303.773,191.624 307.453,185.685 304.766,182.940 " />
<polygon points="307.454,492.384 303.774,486.446 299.031,491.292 304.767,495.130 " />
<polygon points="286.810,504.267 292.594,489.710 267.872,487.311 270.365,502.672 " />
<polygon points="351.382,329.614 354.300,314.321 328.890,317.177 334.480,331.514 " />
<polygon points="347.614,334.848 351.382,329.614 334.480,331.514 338.815,335.837 " />
<polygon points="282.213,508.802 286.810,504.267 270.365,502.672 273.651,507.971 " />
<polygon points="141.254,299.572 132.901,294.845 130.985,310.558 141.184,310.627 " />
<polygon points="43.931,481.980 45.819,497.698 54.185,492.976 54.145,481.917 " />
<polygon points="124.534,294.788 116.152,299.402 110.587,310.419 120.786,310.489 " />
<polygon points="23.502,482.108 29.045,493.133 37.439,497.750 33.716,482.044 " />
<polygon points="106.281,324.294 116.184,324.361 120.786,310.489 110.587,310.419 " />
<polygon points="33.716,482.044 29.111,468.172 19.193,468.234 23.502,482.108 " />
<polygon points="126.086,324.428 135.989,324.495 141.184,310.627 130.985,310.558 " />
<polygon points="54.145,481.917 48.946,468.047 39.028,468.110 43.931,481.980 " />
<polygon points="13.376,456.589 29.111,468.172 39.028,468.110 42.018,456.410 " />
<polygon points="135.989,324.495 126.086,324.428 128.939,336.103 " />
<polygon points="42.018,456.410 39.028,468.110 48.946,468.047 " />
<polygon points="116.184,324.361 106.281,324.294 100.341,335.909 " />
<polygon points="13.376,456.589 19.193,468.234 29.111,468.172 " />
<polygon points="116.152,299.402 124.534,294.788 114.918,283.739 " />
<polygon points="27.769,508.802 37.439,497.750 29.045,493.133 " />
<polygon points="132.901,294.845 141.254,299.572 137.201,283.960 " />
<polygon points="50.083,508.592 54.185,492.976 45.819,497.698 " />
<polygon points="445.187,473.419 451.338,460.059 437.181,441.477 429.375,453.274 " />
<polygon points="438.504,235.040 452.565,216.686 446.533,203.268 430.791,223.173 " />
<polygon points="438.942,379.418 442.271,393.624 455.298,374.026 447.481,360.859 " />
<polygon points="321.591,58.694 308.472,39.260 305.329,53.506 313.895,71.946 " />
<polygon points="436.835,363.605 438.942,379.418 447.481,360.859 436.839,347.878 " />
<polygon points="313.895,71.946 305.329,53.506 303.451,69.347 303.498,85.058 " />
<polygon points="451.338,460.059 454.689,444.589 451.633,430.526 437.181,441.477 " />
<polygon points="452.833,246.140 455.746,232.193 452.565,216.686 438.504,235.040 " />
<polygon points="496.950,154.999 493.108,133.168 487.726,141.534 487.083,155.010 " />
<polygon points="506.208,20.146 507.604,4.498 499.237,4.518 501.072,19.448 " />
<polygon points="497.299,428.806 500.904,412.388 492.537,412.647 493.681,427.505 " />
<polygon points="497.633,257.468 492.902,278.454 500.283,282.566 500.269,258.423 " />
<polygon points="203.787,14.803 203.800,32.946 217.095,27.315 212.729,14.851 " />
<polygon points="321.625,20.251 308.425,14.728 308.443,32.863 317.281,32.721 " />
<polygon points="340.336,22.451 328.016,19.268 328.019,31.903 338.986,36.289 " />
<polygon points="346.752,27.859 346.728,40.396 358.868,36.895 357.633,23.319 " />
<polygon points="447.481,360.859 455.298,374.026 455.369,354.108 451.554,354.166 " />
<polygon points="321.625,78.581 321.591,58.694 313.895,71.946 317.836,78.570 " />
<polygon points="429.375,453.274 437.181,441.477 431.826,434.310 429.348,434.003 " />
<polygon points="433.199,242.117 438.504,235.040 430.791,223.173 430.752,242.389 " />
<polygon points="429.348,434.003 431.826,434.310 431.986,426.280 430.335,427.472 " />
<polygon points="433.365,250.122 433.199,242.117 430.752,242.389 431.731,248.912 " />
<polygon points="451.554,354.166 455.369,354.108 452.434,347.496 451.129,346.071 " />
<polygon points="318.687,85.218 321.625,78.581 317.836,78.570 317.411,86.660 " />
<polygon points="338.986,36.289 328.019,31.903 332.003,40.392 333.088,40.396 " />
<polygon points="350.700,19.340 346.752,27.859 357.633,23.319 351.768,19.305 " />
<polygon points="456.041,15.779 460.951,6.075 455.674,6.078 454.740,6.647 " />
<polygon points="498.107,250.079 503.388,250.081 498.474,240.378 497.173,249.510 " />
<polygon points="439.490,7.653 438.157,14.113 441.768,14.105 440.583,7.650 " />
<polygon points="493.656,435.020 497.299,428.806 493.681,427.505 492.560,434.626 " />
<polygon points="493.875,436.294 493.656,435.020 492.560,434.626 492.540,435.814 " />
<polygon points="438.375,5.952 439.490,7.653 440.583,7.650 439.500,5.950 " />
<polygon points="39.527,13.313 38.427,13.309 39.376,28.992 41.581,28.999 " />
<polygon points="239.082,13.310 237.923,29.002 239.023,28.992 241.286,13.290 " />
<polygon points="38.427,13.309 29.418,13.281 29.217,28.961 39.376,28.992 " />
<polygon points="228.923,13.404 228.915,29.085 237.923,29.002 239.082,13.310 " />
<polygon points="234.727,452.985 229.418,451.966 228.316,468.146 232.520,469.168 " />
<polygon points="210.296,468.201 209.098,452.028 203.793,453.078 206.096,469.248 " />
<polygon points="229.418,451.966 219.258,451.997 219.306,468.173 228.316,468.146 " />
<polygon points="219.306,468.173 219.258,451.997 209.098,452.028 210.296,468.201 " />
<polygon points="235.562,407.553 243.928,407.528 247.806,388.449 238.285,388.477 " />
<polygon points="190.325,388.623 194.319,407.678 202.685,407.653 199.847,388.594 " />
<polygon points="243.928,407.528 252.004,408.538 256.991,389.455 247.806,388.449 " />
<polygon points="181.144,389.685 186.247,408.737 194.319,407.678 190.325,388.623 " />
<polygon points="35.400,268.838 35.415,263.863 16.476,267.763 16.457,273.848 " />
<polygon points="16.654,210.237 35.569,214.214 35.584,209.239 16.673,204.151 " />
<polygon points="35.415,263.863 35.434,257.502 16.499,260.247 16.476,267.763 " />
<polygon points="16.630,217.743 35.548,220.565 35.569,214.214 16.654,210.237 " />
<polygon points="16.457,273.848 16.476,267.763 3.222,268.823 3.196,277.344 " />
<polygon points="3.407,209.095 16.654,210.237 16.673,204.151 3.433,200.574 " />
<polygon points="16.476,267.763 16.499,260.247 3.252,258.772 3.222,268.823 " />
<polygon points="3.375,219.137 16.630,217.743 16.654,210.237 3.407,209.095 " />
<polygon points="238.285,388.477 247.806,388.449 248.896,375.107 236.812,375.143 " />
<polygon points="189.155,375.288 190.325,388.623 199.847,388.594 201.239,375.251 " />
<polygon points="247.806,388.449 256.991,389.455 260.543,376.106 248.896,375.107 " />
<polygon points="177.512,376.358 181.144,389.685 190.325,388.623 189.155,375.288 " />
<polygon points="203.865,89.882 207.952,100.331 217.302,97.429 217.314,89.847 " />
<polygon points="217.246,134.279 207.905,131.350 203.787,141.787 217.235,141.860 " />
<polygon points="207.952,100.331 207.928,115.841 217.274,115.854 217.302,97.429 " />
<polygon points="217.274,115.854 207.928,115.841 207.905,131.350 217.246,134.279 " />
<polygon points="214.700,327.900 230.194,327.948 233.175,318.638 214.768,318.581 " />
<polygon points="196.361,318.524 199.205,327.852 214.700,327.900 214.768,318.581 " />
<polygon points="472.607,206.006 465.507,207.832 464.466,217.720 472.065,215.767 " />
<polygon points="206.131,71.750 207.117,81.624 214.217,83.450 213.752,73.709 " />
<polygon points="230.974,348.339 226.759,348.326 223.305,368.706 224.405,368.710 " />
<polygon points="205.287,368.651 202.256,348.250 198.041,348.237 204.188,368.647 " />
<polygon points="226.759,348.326 214.507,348.288 214.296,368.679 223.305,368.706 " />
<polygon points="214.296,368.679 214.507,348.288 202.256,348.250 205.287,368.651 " />
<polygon points="237.524,327.970 230.194,327.948 226.759,348.326 230.974,348.339 " />
<polygon points="202.256,348.250 199.205,327.852 191.875,327.829 198.041,348.237 " />
<polygon points="230.194,327.948 214.700,327.900 214.507,348.288 226.759,348.326 " />
<polygon points="214.507,348.288 214.700,327.900 199.205,327.852 202.256,348.250 " />
<polygon points="219.368,488.542 231.621,488.505 228.316,468.146 219.306,468.173 " />
<polygon points="210.296,468.201 207.115,488.580 219.368,488.542 219.306,468.173 " />
<polygon points="231.621,488.505 238.941,489.518 232.520,469.168 228.316,468.146 " />
<polygon points="206.096,469.248 199.799,489.636 207.115,488.580 210.296,468.201 " />
<polygon points="219.430,507.688 234.926,507.641 231.621,488.505 219.368,488.542 " />
<polygon points="207.115,488.580 203.934,507.735 219.430,507.688 219.368,488.542 " />
<polygon points="234.926,507.641 245.361,508.644 238.941,489.518 231.621,488.505 " />
<polygon points="199.799,489.636 193.502,508.802 203.934,507.735 207.115,488.580 " />
<polygon points="462.345,222.778 473.006,220.039 472.065,215.767 464.466,217.720 " />
<polygon points="213.752,73.709 214.719,69.444 204.022,66.695 206.131,71.750 " />
<polygon points="233.339,314.267 214.795,314.210 214.768,318.581 233.175,318.638 " />
<polygon points="214.768,318.581 214.795,314.210 196.250,314.152 196.361,318.524 " />
<polygon points="487.558,375.655 487.502,357.093 483.367,357.244 483.423,375.669 " />
<polygon points="483.479,394.094 487.614,394.218 487.558,375.655 483.423,375.669 " />
<polygon points="487.502,357.093 487.469,346.071 483.345,349.662 483.367,357.244 " />
<polygon points="483.502,401.675 487.648,405.240 487.614,394.218 483.479,394.094 " />
<polygon points="462.139,224.050 473.263,221.191 473.006,220.039 462.345,222.778 " />
<polygon points="214.719,69.444 214.977,68.292 203.833,65.427 204.022,66.695 " />
<polygon points="233.380,313.087 214.802,313.029 214.795,314.210 233.339,314.267 " />
<polygon points="214.795,314.210 214.802,313.029 196.217,312.972 196.250,314.152 " />
<polygon points="486.107,442.903 486.130,424.304 484.047,424.347 484.023,442.909 " />
<polygon points="484.000,461.471 486.083,461.503 486.107,442.903 484.023,442.909 " />
<polygon points="486.130,424.304 486.145,412.388 484.061,413.325 484.047,424.347 " />
<polygon points="483.986,472.493 486.068,473.419 486.083,461.503 484.000,461.471 " />
<polygon points="250.408,251.842 234.177,251.811 233.811,260.490 252.007,262.837 " />
<polygon points="195.919,260.373 195.530,251.691 179.257,251.622 177.709,262.606 " />
<polygon points="234.177,251.811 214.870,251.726 214.872,258.048 233.811,260.490 " />
<polygon points="214.872,258.048 214.870,251.726 195.530,251.691 195.919,260.373 " />
<polygon points="191.722,68.646 179.642,68.368 178.917,79.627 184.408,81.110 " />
<polygon points="121.657,95.771 122.140,107.043 134.224,107.024 127.178,94.407 " />
<polygon points="179.642,68.368 167.905,72.205 174.427,80.880 178.917,79.627 " />
<polygon points="117.194,94.422 110.489,102.955 122.140,107.043 121.657,95.771 " />
<polygon points="170.262,107.277 178.773,107.473 178.589,93.895 174.876,92.857 " />
<polygon points="121.635,81.500 122.110,67.928 113.596,67.941 117.900,82.457 " />
<polygon points="178.773,107.473 188.817,107.374 181.946,93.428 178.589,93.895 " />
<polygon points="124.980,82.039 132.148,68.243 122.110,67.928 121.635,81.500 " />
<polygon points="504.934,146.836 508.657,146.827 508.615,133.168 504.892,133.178 " />
<polygon points="281.616,16.868 281.658,3.210 277.909,3.200 277.867,16.859 " />
<polygon points="506.576,70.514 503.224,70.505 503.182,84.163 506.534,84.172 " />
<polygon points="250.609,4.868 250.651,18.526 253.988,18.517 253.946,4.859 " />
<polygon points="492.944,302.702 498.467,302.520 498.425,288.963 492.902,289.144 " />
<polygon points="401.297,7.598 401.339,21.155 406.862,21.303 406.820,7.746 " />
<polygon points="498.467,302.520 502.928,302.671 502.886,289.114 498.425,288.963 " />
<polygon points="396.837,7.776 396.878,21.333 401.339,21.155 401.297,7.598 " />
<polygon points="432.187,403.621 437.712,402.274 437.772,400.281 429.382,400.270 " />
<polygon points="472.301,135.407 472.354,137.400 477.875,138.762 480.692,135.417 " />
<polygon points="437.712,402.274 442.170,403.634 445.833,400.291 437.772,400.281 " />
<polygon points="464.240,135.396 467.892,138.749 472.354,137.400 472.301,135.407 " />
<polygon points="441.426,415.580 437.688,416.525 437.739,419.873 445.800,419.883 " />
<polygon points="472.268,154.999 472.330,151.652 468.596,150.696 464.207,154.989 " />
<polygon points="437.688,416.525 434.344,415.978 429.348,419.862 437.739,419.873 " />
<polygon points="480.659,155.010 475.676,151.112 472.330,151.652 472.268,154.999 " />
<polygon points="433.591,196.871 441.652,196.847 442.992,188.365 432.733,188.396 " />
<polygon points="274.553,69.557 273.211,61.075 265.151,61.050 264.294,69.525 " />
<polygon points="441.652,196.847 450.042,196.821 453.670,188.333 442.992,188.365 " />
<polygon points="285.231,69.590 281.601,61.101 273.211,61.075 274.553,69.557 " />
<polygon points="94.016,26.380 94.042,17.982 84.824,19.320 84.790,30.008 " />
<polygon points="162.892,19.044 172.111,20.386 172.085,11.988 162.860,8.356 " />
<polygon points="94.042,17.982 94.067,9.913 84.856,9.051 84.824,19.320 " />
<polygon points="162.923,29.313 172.135,28.455 172.111,20.386 162.892,19.044 " />
<polygon points="432.644,166.711 444.978,166.673 444.739,159.089 432.636,159.125 " />
<polygon points="276.315,98.833 276.583,91.249 264.249,91.211 264.211,98.796 " />
<polygon points="444.978,166.673 457.816,166.634 457.337,159.050 444.739,159.089 " />
<polygon points="288.912,98.873 289.421,91.289 276.583,91.249 276.315,98.833 " />
<polygon points="336.177,86.660 335.904,77.839 328.265,77.632 328.524,86.212 " />
<polygon points="441.846,304.996 449.485,304.789 449.759,295.969 442.105,296.417 " />
<polygon points="335.904,77.839 335.641,69.365 328.016,69.388 328.265,77.632 " />
<polygon points="441.597,313.238 449.221,313.262 449.485,304.789 441.846,304.996 " />
<polygon points="454.576,180.737 443.419,180.771 442.992,188.365 453.670,188.333 " />
<polygon points="274.553,69.557 275.002,77.151 286.159,77.186 285.231,69.590 " />
<polygon points="443.419,180.771 432.698,180.803 432.733,188.396 442.992,188.365 " />
<polygon points="264.294,69.525 264.281,77.118 275.002,77.151 274.553,69.557 " />
<polygon points="457.816,166.634 444.978,166.673 443.419,180.771 454.576,180.737 " />
<polygon points="275.002,77.151 276.583,91.249 289.421,91.289 286.159,77.186 " />
<polygon points="444.978,166.673 432.644,166.711 432.698,180.803 443.419,180.771 " />
<polygon points="264.281,77.118 264.249,91.211 276.583,91.249 275.002,77.151 " />
<polygon points="332.026,97.604 324.279,99.510 324.214,108.580 334.177,106.129 " />
<polygon points="128.296,126.225 127.202,117.194 119.301,116.085 118.136,124.799 " />
<polygon points="324.279,99.510 316.216,101.495 313.844,111.132 324.214,108.580 " />
<polygon points="138.871,127.710 135.424,118.348 127.202,117.194 128.296,126.225 " />
<polygon points="335.641,69.365 335.904,77.839 350.488,77.306 350.464,69.322 " />
<polygon points="464.069,305.325 449.485,304.789 449.221,313.262 464.044,313.310 " />
<polygon points="335.904,77.839 336.177,86.660 350.513,85.617 350.488,77.306 " />
<polygon points="464.095,297.014 449.759,295.969 449.485,304.789 464.069,305.325 " />
<polygon points="338.348,123.047 328.385,125.499 333.359,145.874 343.322,143.422 " />
<polygon points="122.952,164.252 125.892,143.485 115.731,142.058 112.792,162.826 " />
<polygon points="328.385,125.499 318.015,128.051 322.990,148.426 333.359,145.874 " />
<polygon points="133.527,165.736 136.467,144.969 125.892,143.485 122.952,164.252 " />
<polygon points="334.177,106.129 324.214,108.580 328.385,125.499 338.348,123.047 " />
<polygon points="125.892,143.485 128.296,126.225 118.136,124.799 115.731,142.058 " />
<polygon points="324.214,108.580 313.844,111.132 318.015,128.051 328.385,125.499 " />
<polygon points="136.467,144.969 138.871,127.710 128.296,126.225 125.892,143.485 " />
<polygon points="138.871,222.732 126.276,222.442 125.626,250.735 138.221,251.025 " />
<polygon points="239.581,174.601 239.625,202.901 252.224,202.881 252.180,174.581 " />
<polygon points="126.276,222.442 114.174,222.164 113.524,250.456 125.626,250.735 " />
<polygon points="227.476,174.620 227.520,202.920 239.625,202.901 239.581,174.601 " />
<polygon points="131.511,199.402 122.985,197.286 126.276,222.442 138.871,222.732 " />
<polygon points="239.625,202.901 235.796,227.981 244.366,226.048 252.224,202.881 " />
<polygon points="122.985,197.286 114.792,195.253 114.174,222.164 126.276,222.442 " />
<polygon points="227.520,202.920 227.562,229.838 235.796,227.981 239.625,202.901 " />
<polygon points="70.038,255.740 70.036,256.122 51.902,254.897 51.879,262.532 " />
<polygon points="52.000,223.261 70.142,222.084 70.141,222.466 52.024,215.626 " />
<polygon points="70.036,256.122 70.089,239.103 51.950,239.075 51.902,254.897 " />
<polygon points="51.950,239.075 70.089,239.103 70.142,222.084 52.000,223.261 " />
<polygon points="79.604,251.490 79.611,249.283 70.036,256.122 70.038,255.740 " />
<polygon points="70.142,222.084 79.674,228.947 79.681,226.741 70.141,222.466 " />
<polygon points="79.611,249.283 79.643,239.115 70.089,239.103 70.036,256.122 " />
<polygon points="70.089,239.103 79.643,239.115 79.674,228.947 70.142,222.084 " />
<polygon points="238.957,443.388 231.561,442.376 229.418,451.966 234.727,452.985 " />
<polygon points="209.098,452.028 206.897,442.450 199.505,443.507 203.793,453.078 " />
<polygon points="231.561,442.376 219.229,442.413 219.258,451.997 229.418,451.966 " />
<polygon points="219.258,451.997 219.229,442.413 206.897,442.450 209.098,452.028 " />
<polygon points="245.712,425.172 234.979,424.169 231.561,442.376 238.957,443.388 " />
<polygon points="206.897,442.450 203.368,424.265 192.639,425.332 199.505,443.507 " />
<polygon points="234.979,424.169 219.174,424.446 219.229,442.413 231.561,442.376 " />
<polygon points="219.229,442.413 219.174,424.446 203.368,424.265 206.897,442.450 " />
<polygon points="235.399,108.422 235.455,90.260 224.218,89.421 225.008,108.388 " />
<polygon points="224.101,127.350 235.343,126.583 235.399,108.422 225.008,108.388 " />
<polygon points="235.455,90.260 235.499,76.100 224.368,74.914 224.218,89.421 " />
<polygon points="224.160,141.860 235.299,140.743 235.343,126.583 224.101,127.350 " />
<polygon points="47.001,141.730 32.191,145.096 32.226,160.713 " />
<polygon points="32.226,160.713 32.152,176.345 46.952,179.659 " />
<polygon points="47.022,160.688 47.001,141.730 32.226,160.713 " />
<polygon points="32.226,160.713 46.952,179.659 47.022,160.688 " />
<polygon points="47.001,141.730 51.344,127.233 32.191,145.096 " />
<polygon points="32.152,176.345 51.259,194.177 46.952,179.659 " />
<polygon points="307.453,105.338 284.863,122.877 295.086,122.892 " />
<polygon points="274.641,122.861 284.863,122.877 262.327,105.270 " />
<polygon points="258.615,368.710 259.866,350.658 258.622,333.486 " />
<polygon points="258.615,327.089 259.866,310.182 258.622,292.408 " />
<polygon points="307.453,105.338 284.890,105.284 284.863,122.877 " />
<polygon points="284.863,122.877 284.890,105.284 262.327,105.270 " />
<polygon points="214.868,276.620 233.919,276.679 233.811,260.490 214.872,258.048 " />
<polygon points="195.919,260.373 195.816,276.561 214.868,276.620 214.872,258.048 " />
<polygon points="233.919,276.679 252.224,276.736 252.007,262.837 233.811,260.490 " />
<polygon points="177.709,262.606 177.512,276.504 195.816,276.561 195.919,260.373 " />
<polygon points="214.855,293.957 237.323,289.475 233.919,276.679 214.868,276.620 " />
<polygon points="195.816,276.561 192.425,289.336 214.855,293.957 214.868,276.620 " />
<polygon points="237.323,289.475 251.429,287.894 252.224,276.736 233.919,276.679 " />
<polygon points="177.512,276.504 178.257,287.667 192.425,289.336 195.816,276.561 " />
<polygon points="113.264,261.773 125.366,262.051 125.626,250.735 113.524,250.456 " />
<polygon points="239.581,174.601 239.564,163.282 227.459,163.300 227.476,174.620 " />
<polygon points="125.366,262.051 137.961,262.341 138.221,251.025 125.626,250.735 " />
<polygon points="252.180,174.581 252.162,163.262 239.564,163.282 239.581,174.601 " />
<polygon points="239.564,163.282 239.548,153.078 227.443,153.097 227.459,163.300 " />
<polygon points="252.162,163.262 252.146,153.059 239.548,153.078 239.564,163.282 " />
<polygon points="112.920,276.773 125.021,277.052 125.132,272.252 113.030,271.973 " />
<polygon points="239.548,153.078 239.540,148.277 227.436,148.296 227.443,153.097 " />
<polygon points="125.021,277.052 137.617,277.342 137.727,272.541 125.132,272.252 " />
<polygon points="252.146,153.059 252.139,148.257 239.540,148.277 239.548,153.078 " />
<polygon points="149.377,467.152 148.622,458.867 138.947,459.527 139.095,467.807 " />
<polygon points="51.788,333.066 61.391,333.749 62.208,325.453 51.996,324.775 " />
<polygon points="139.095,467.807 139.246,476.255 150.147,475.604 149.377,467.152 " />
<polygon points="63.040,316.990 52.208,316.315 51.996,324.775 62.208,325.453 " />
<polygon points="277.123,53.065 289.338,54.653 286.644,41.637 276.787,41.523 " />
<polygon points="483.733,270.484 486.427,257.468 474.210,259.057 473.874,270.598 " />
<polygon points="49.423,117.535 50.919,109.218 36.038,110.564 36.277,118.808 " />
<polygon points="78.588,74.554 93.537,75.887 91.939,67.547 78.767,66.297 " />
<polygon points="51.996,324.775 39.381,324.854 39.721,333.142 51.788,333.066 " />
<polygon points="52.208,316.315 39.034,316.398 39.381,324.854 51.996,324.775 " />
<polygon points="183.193,177.778 184.740,186.380 192.078,187.808 190.535,179.206 " />
<polygon points="420.471,176.037 412.983,177.541 411.498,186.151 418.983,184.648 " />
<polygon points="184.740,186.380 186.318,195.156 193.652,196.584 192.078,187.808 " />
<polygon points="421.989,167.252 414.497,168.757 412.983,177.541 420.471,176.037 " />
<polygon points="276.434,29.422 286.275,28.986 289.421,23.265 276.278,24.056 " />
<polygon points="486.511,288.855 483.365,283.135 473.522,282.700 473.366,288.065 " />
<polygon points="23.731,120.124 22.936,111.939 17.592,112.807 18.399,120.836 " />
<polygon points="60.288,72.400 65.502,73.215 66.236,65.015 60.972,64.337 " />
<polygon points="483.365,283.135 483.733,270.484 473.874,270.598 473.522,282.700 " />
<polygon points="65.502,73.215 78.588,74.554 78.767,66.297 66.236,65.015 " />
<polygon points="51.902,254.897 43.741,259.335 43.722,265.653 51.879,262.532 " />
<polygon points="43.886,212.464 43.867,218.783 52.000,223.261 52.024,215.626 " />
<polygon points="43.741,259.335 35.415,263.863 35.400,268.838 43.722,265.653 " />
<polygon points="35.584,209.239 35.569,214.214 43.867,218.783 43.886,212.464 " />
<polygon points="51.950,239.075 43.762,252.227 43.741,259.335 51.902,254.897 " />
<polygon points="43.867,218.783 43.844,225.882 51.950,239.075 52.000,223.261 " />
<polygon points="43.762,252.227 35.434,257.502 35.415,263.863 43.741,259.335 " />
<polygon points="35.569,214.214 35.548,220.565 43.844,225.882 43.867,218.783 " />
<polygon points="234.979,424.169 239.409,415.932 231.313,416.072 219.174,424.446 " />
<polygon points="206.985,416.146 198.889,416.055 203.368,424.265 219.174,424.446 " />
<polygon points="239.409,415.932 243.928,407.528 235.562,407.553 231.313,416.072 " />
<polygon points="202.685,407.653 194.319,407.678 198.889,416.055 206.985,416.146 " />
<polygon points="245.712,425.172 248.826,416.938 239.409,415.932 234.979,424.169 " />
<polygon points="198.889,416.055 189.475,417.118 192.639,425.332 203.368,424.265 " />
<polygon points="248.826,416.938 252.004,408.538 243.928,407.528 239.409,415.932 " />
<polygon points="194.319,407.678 186.247,408.737 189.475,417.118 198.889,416.055 " />
<polygon points="479.995,168.678 464.207,173.519 479.940,196.871 " />
<polygon points="482.610,90.569 466.865,113.889 482.596,118.872 " />
<polygon points="423.985,283.371 429.595,291.976 435.190,267.470 " />
<polygon points="61.038,114.629 66.714,139.160 72.380,130.587 " />
<polygon points="479.995,168.678 474.850,161.407 464.207,173.519 " />
<polygon points="466.865,113.889 477.485,126.044 482.596,118.872 " />
<polygon points="112.321,285.178 100.697,299.297 116.152,299.402 " />
<polygon points="29.045,493.133 13.567,493.230 25.124,507.370 " />
<polygon points="114.918,283.739 112.321,285.178 116.152,299.402 " />
<polygon points="29.045,493.133 25.124,507.370 27.769,508.802 " />
<polygon points="444.755,148.148 443.214,145.863 430.752,152.653 " />
<polygon points="19.926,32.965 20.019,47.057 22.826,47.304 " />
<polygon points="45.819,497.698 37.439,497.750 38.926,508.697 " />
<polygon points="137.201,283.960 126.059,283.849 132.901,294.845 " />
<polygon points="45.819,497.698 38.926,508.697 50.083,508.592 " />
<polygon points="126.059,283.849 114.918,283.739 124.534,294.788 " />
<polygon points="37.439,497.750 27.769,508.802 38.926,508.697 " />
<polygon points="443.980,139.966 430.783,136.408 430.752,152.653 " />
<polygon points="19.926,32.965 5.589,40.670 15.125,50.545 " />
<polygon points="443.214,145.863 443.980,139.966 430.752,152.653 " />
<polygon points="19.926,32.965 15.125,50.545 20.019,47.057 " />
<polygon points="443.980,139.966 444.747,134.068 430.783,136.408 " />
<polygon points="5.589,40.670 5.587,70.489 15.125,50.545 " />
<polygon points="223.336,237.035 214.870,251.726 234.177,251.811 " />
<polygon points="195.530,251.691 214.870,251.726 206.324,236.982 " />
<polygon points="231.840,237.835 223.336,237.035 234.177,251.811 " />
<polygon points="435.200,46.594 441.768,33.288 435.170,20.510 " />
<polygon points="223.336,237.035 214.832,236.235 214.870,251.726 " />
<polygon points="214.870,251.726 214.832,236.235 206.324,236.982 " />
<polygon points="437.415,102.043 435.761,101.541 435.162,114.241 460.474,127.553 " />
<polygon points="29.473,35.817 30.022,48.516 50.614,38.412 30.488,35.396 " />
<polygon points="489.001,115.058 497.504,115.078 496.760,90.569 489.484,102.102 " />
<polygon points="374.360,25.758 387.005,42.602 387.036,20.187 375.219,25.566 " />
<polygon points="460.474,127.553 435.162,114.241 434.563,126.941 434.876,127.591 " />
<polygon points="78.966,122.403 78.190,135.093 86.129,135.012 86.321,122.187 " />
<polygon points="475.213,422.526 465.654,396.885 461.760,422.139 462.213,422.552 " />
<polygon points="86.321,122.187 86.129,135.012 94.067,134.930 93.676,121.970 " />
<polygon points="427.034,300.560 435.205,300.581 429.595,291.976 423.876,289.911 " />
<polygon points="66.714,139.160 61.049,147.734 69.232,147.759 72.452,137.127 " />
<polygon points="418.862,300.539 427.034,300.560 423.876,289.911 418.157,287.845 " />
<polygon points="72.452,137.127 69.232,147.759 77.415,147.783 78.190,135.093 " />
<polygon points="423.876,289.911 429.595,291.976 423.985,283.371 420.718,279.261 " />
<polygon points="72.380,130.587 66.714,139.160 72.452,137.127 75.673,126.495 " />
<polygon points="418.157,287.845 423.876,289.911 420.718,279.261 417.451,275.151 " />
<polygon points="75.673,126.495 72.452,137.127 78.190,135.093 78.966,122.403 " />
<polygon points="427.034,300.560 418.862,300.539 418.507,311.519 426.694,311.635 " />
<polygon points="77.695,158.765 77.415,147.783 69.232,147.759 69.498,158.836 " />
<polygon points="435.205,300.581 427.034,300.560 426.694,311.635 434.881,311.751 " />
<polygon points="69.498,158.836 69.232,147.759 61.049,147.734 61.301,158.906 " />
<polygon points="426.694,311.635 418.507,311.519 418.153,322.499 426.355,322.710 " />
<polygon points="77.974,169.747 77.695,158.765 69.498,158.836 69.764,169.913 " />
<polygon points="434.881,311.751 426.694,311.635 426.355,322.710 434.558,322.922 " />
<polygon points="69.764,169.913 69.498,158.836 61.301,158.906 61.554,170.079 " />
<polygon points="72.743,36.405 73.852,36.933 76.460,47.436 94.067,36.415 " />
<polygon points="148.732,28.334 144.404,38.214 156.434,54.368 156.468,31.945 " />
<polygon points="435.761,101.541 437.415,102.043 458.118,96.254 435.398,90.569 " />
<polygon points="31.149,59.075 50.614,38.412 30.022,48.516 29.620,59.502 " />
<polygon points="94.067,36.415 76.460,47.436 79.068,57.940 78.317,57.489 " />
<polygon points="484.465,43.670 494.056,48.633 494.440,49.763 494.394,26.543 " />
<polygon points="418.507,311.519 406.098,307.429 409.619,322.306 418.153,322.499 " />
<polygon points="51.344,70.486 31.149,59.075 29.620,59.502 29.217,70.489 " />
<polygon points="426.355,322.710 418.153,322.499 406.690,335.837 425.029,326.598 " />
<polygon points="81.975,174.730 77.974,169.747 69.764,169.913 71.043,173.809 " />
<polygon points="434.558,322.922 426.355,322.710 425.029,326.598 432.134,325.563 " />
<polygon points="71.043,173.809 69.764,169.913 61.554,170.079 63.936,172.734 " />
<polygon points="445.596,84.172 460.951,59.326 442.580,77.798 443.897,83.598 " />
<polygon points="90.449,188.856 81.975,174.730 71.043,173.809 72.322,177.704 " />
<polygon points="432.134,325.563 425.029,326.598 423.704,330.486 429.711,328.203 " />
<polygon points="72.322,177.704 71.043,173.809 63.936,172.734 66.318,175.389 " />
<polygon points="477.707,311.335 470.486,316.008 480.303,335.837 477.367,310.694 " />
<polygon points="490.782,240.378 481.782,246.857 485.454,249.522 490.769,251.009 " />
<polygon points="484.928,306.662 477.707,311.335 477.367,310.694 484.898,331.732 " />
<polygon points="492.537,452.437 500.174,473.419 500.172,448.388 495.759,448.656 " />
<polygon points="441.644,69.022 460.736,53.040 438.203,61.272 440.392,69.535 " />
<polygon points="438.203,61.272 460.736,53.040 435.803,52.991 434.563,53.538 " />
<polygon points="460.951,59.326 441.644,69.022 440.392,69.535 442.580,77.798 " />
<polygon points="451.146,147.852 455.250,151.265 454.347,152.461 455.255,134.068 " />
<polygon points="252.224,90.334 235.499,76.100 235.455,90.260 " />
<polygon points="235.343,126.583 235.299,140.743 252.111,126.620 " />
<polygon points="136.928,44.677 133.398,42.247 133.441,61.531 " />
<polygon points="500.834,30.475 500.831,49.763 504.315,47.370 " />
<polygon points="73.152,29.944 78.399,30.008 73.169,11.266 " />
<polygon points="393.432,81.182 398.677,62.315 393.428,62.331 " />
<polygon points="251.705,101.109 235.455,90.260 235.399,108.422 " />
<polygon points="235.399,108.422 235.343,126.583 251.659,115.839 " />
<polygon points="251.682,108.474 251.705,101.109 235.399,108.422 " />
<polygon points="235.399,108.422 251.659,115.839 251.682,108.474 " />
<polygon points="251.705,101.109 251.728,93.744 235.455,90.260 " />
<polygon points="235.343,126.583 251.637,123.204 251.659,115.839 " />
<polygon points="128.939,336.103 129.592,347.219 151.185,347.966 142.587,337.492 " />
<polygon points="129.592,347.219 130.390,360.805 161.694,360.768 151.185,347.966 " />
<polygon points="43.321,431.745 42.604,445.311 64.086,444.605 74.559,431.822 " />
<polygon points="42.604,445.311 42.018,456.410 55.518,455.063 64.086,444.605 " />
<polygon points="91.659,335.315 91.114,346.544 101.343,347.045 100.341,335.909 " />
<polygon points="91.114,346.544 90.447,360.267 102.567,360.654 101.343,347.045 " />
<polygon points="3.196,432.287 3.932,445.994 14.320,445.469 15.473,431.878 " />
<polygon points="3.932,445.994 4.534,457.210 13.376,456.589 14.320,445.469 " />
<polygon points="419.931,479.816 408.250,479.822 410.222,504.840 417.690,503.251 " />
<polygon points="408.250,479.822 393.973,479.829 400.869,506.787 410.222,504.840 " />
<polygon points="361.637,506.829 375.907,506.817 377.803,481.794 368.460,479.816 " />
<polygon points="375.907,506.817 387.582,506.807 385.281,483.340 377.803,481.794 " />
<polygon points="146.003,277.342 159.817,273.385 155.704,248.224 146.355,248.585 " />
<polygon points="159.817,273.385 171.120,270.148 163.491,247.944 155.704,248.224 " />
<polygon points="386.776,349.351 375.463,346.148 371.425,371.322 379.213,371.579 " />
<polygon points="375.463,346.148 361.637,342.234 362.075,370.990 371.425,371.322 " />
<polygon points="146.355,248.585 155.704,248.224 154.468,215.327 148.482,215.567 " />
<polygon points="155.704,248.224 163.491,247.944 159.568,215.152 154.468,215.327 " />
<polygon points="379.213,371.579 371.425,371.322 370.287,404.225 375.388,404.386 " />
<polygon points="371.425,371.322 362.075,370.990 364.301,404.005 370.287,404.225 " />
<polygon points="196.008,29.043 188.373,29.073 187.951,61.971 192.809,61.936 " />
<polygon points="188.373,29.073 178.820,29.068 181.690,61.952 187.951,61.971 " />
<polygon points="224.101,68.490 233.650,68.517 233.135,35.515 226.879,35.482 " />
<polygon points="233.650,68.517 241.286,68.503 237.997,35.491 233.135,35.515 " />
<polygon points="408.878,27.730 404.019,27.765 403.811,54.645 409.308,54.615 " />
<polygon points="404.019,27.765 397.758,27.747 396.837,54.633 403.811,54.645 " />
<polygon points="456.636,506.667 462.892,506.700 462.602,479.837 455.266,479.816 " />
<polygon points="462.892,506.700 467.753,506.675 468.469,479.827 462.602,479.837 " />
<polygon points="148.482,215.567 154.468,215.327 153.135,188.481 146.384,188.746 " />
<polygon points="154.468,215.327 159.568,215.152 158.818,188.281 153.135,188.481 " />
<polygon points="375.388,404.386 370.287,404.225 369.034,431.075 375.018,431.273 " />
<polygon points="370.287,404.225 364.301,404.005 361.851,430.820 369.034,431.075 " />
<polygon points="146.384,188.746 153.135,188.481 152.134,158.855 146.920,159.050 " />
<polygon points="153.135,188.481 158.818,188.281 156.400,158.696 152.134,158.855 " />
<polygon points="375.018,431.273 369.034,431.075 368.121,460.706 372.388,460.852 " />
<polygon points="369.034,431.075 361.851,430.820 362.907,460.527 368.121,460.706 " />
<polygon points="428.171,24.988 422.674,25.018 422.362,54.637 426.640,54.631 " />
<polygon points="422.674,25.018 415.700,25.006 417.132,54.645 422.362,54.637 " />
<polygon points="256.683,54.632 264.020,54.653 263.625,24.930 258.396,24.926 " />
<polygon points="264.020,54.653 269.886,54.643 267.903,24.934 263.625,24.930 " />
<polygon points="428.171,5.786 423.892,5.792 421.976,18.456 424.162,18.591 " />
<polygon points="423.892,5.792 418.663,5.800 419.306,18.292 421.976,18.456 " />
<polygon points="260.379,18.521 265.608,18.526 263.642,6.063 260.973,6.210 " />
<polygon points="265.608,18.526 269.886,18.529 265.826,5.943 263.642,6.063 " />
<polygon points="146.920,159.050 152.134,158.855 148.852,146.351 146.156,146.608 " />
<polygon points="152.134,158.855 156.400,158.696 151.058,146.141 148.852,146.351 " />
<polygon points="372.388,460.852 368.121,460.706 364.877,473.216 367.084,473.419 " />
<polygon points="368.121,460.706 362.907,460.527 362.180,472.967 364.877,473.216 " />
<polygon points="503.325,228.182 501.114,228.189 501.109,233.973 503.322,233.966 " />
<polygon points="501.114,228.189 498.411,228.198 498.404,233.981 501.109,233.973 " />
<polygon points="497.664,167.191 500.366,167.199 500.362,161.415 497.657,161.407 " />
<polygon points="500.366,167.199 502.577,167.207 502.575,161.422 500.362,161.415 " />
<polygon points="486.396,171.454 489.071,171.461 489.062,161.415 486.386,161.407 " />
<polygon points="489.071,171.461 491.261,171.467 491.251,161.422 489.062,161.415 " />
<polygon points="8.064,110.744 5.877,110.738 5.893,120.828 8.080,120.836 " />
<polygon points="5.877,110.738 3.205,110.729 3.220,120.819 5.893,120.828 " />
<polygon points="486.401,177.229 489.077,177.236 489.071,171.461 486.396,171.454 " />
<polygon points="489.077,177.236 491.266,177.241 491.261,171.467 489.071,171.461 " />
<polygon points="8.055,104.944 5.868,104.938 5.877,110.738 8.064,110.744 " />
<polygon points="5.868,104.938 3.196,104.930 3.205,110.729 5.877,110.738 " />
<polygon points="503.116,195.878 500.996,195.338 501.647,201.762 503.106,201.953 " />
<polygon points="500.996,195.338 498.404,194.678 499.863,201.528 501.647,201.762 " />
<polygon points="247.677,68.517 250.272,67.877 250.922,61.283 249.136,61.501 " />
<polygon points="250.272,67.877 252.395,67.353 252.383,61.104 250.922,61.283 " />
<polygon points="146.156,146.608 148.852,146.351 148.947,135.267 147.117,135.211 " />
<polygon points="452.224,411.369 454.434,411.424 453.741,400.377 452.242,400.270 " />
<polygon points="508.804,90.580 506.595,90.575 506.260,101.856 507.762,101.786 " />
<polygon points="506.595,90.575 503.895,90.569 504.425,101.941 506.260,101.856 " />
<polygon points="147.117,135.211 148.947,135.267 149.402,129.715 148.365,129.684 " />
<polygon points="148.947,135.267 150.444,135.313 150.251,129.741 149.402,129.715 " />
<polygon points="377.689,5.225 376.191,5.224 376.475,10.785 377.324,10.785 " />
<polygon points="376.191,5.224 374.360,5.223 375.438,10.784 376.475,10.785 " />
<polygon points="171.120,114.285 169.620,114.284 169.484,120.292 170.334,120.292 " />
<polygon points="169.620,114.284 167.786,114.284 168.445,120.292 169.484,120.292 " />
<polygon points="146.003,120.292 147.836,120.292 147.676,114.216 146.637,114.216 " />
<polygon points="147.836,120.292 149.337,120.292 148.526,114.216 147.676,114.216 " />
<polygon points="150.151,126.733 149.304,126.713 149.402,129.715 150.251,129.741 " />
<polygon points="149.304,126.713 148.268,126.689 148.365,129.684 149.402,129.715 " />
<polygon points="375.248,13.776 376.284,13.784 376.475,10.785 375.438,10.784 " />
<polygon points="376.284,13.784 377.132,13.790 377.324,10.785 376.475,10.785 " />
<polygon points="498.411,228.198 501.114,228.189 501.486,213.192 499.689,213.198 " />
<polygon points="501.114,228.189 503.325,228.182 502.957,213.188 501.486,213.192 " />
<polygon points="502.577,167.207 500.366,167.199 500.738,182.199 502.209,182.204 " />
<polygon points="500.366,167.199 497.664,167.191 498.940,182.193 500.738,182.199 " />
<polygon points="491.266,177.241 489.077,177.236 489.003,192.239 490.459,192.242 " />
<polygon points="489.077,177.236 486.401,177.229 487.223,192.234 489.003,192.239 " />
<polygon points="3.196,104.930 5.868,104.938 5.763,89.820 3.985,89.815 " />
<polygon points="5.868,104.938 8.055,104.944 7.218,89.824 5.763,89.820 " />
<polygon points="490.459,192.242 489.003,192.239 488.917,197.084 489.676,197.086 " />
<polygon points="489.003,192.239 487.223,192.234 487.991,197.082 488.917,197.084 " />
<polygon points="3.985,89.815 5.763,89.820 5.676,84.866 4.751,84.863 " />
<polygon points="5.763,89.820 7.218,89.824 6.434,84.868 5.676,84.866 " />
<polygon points="499.689,213.198 501.486,213.192 501.875,208.352 500.940,208.355 " />
<polygon points="501.486,213.192 502.957,213.188 502.641,208.350 501.875,208.352 " />
<polygon points="502.209,182.204 500.738,182.199 501.127,187.042 501.892,187.045 " />
<polygon points="500.738,182.199 498.940,182.193 500.191,187.039 501.127,187.042 " />
<polygon points="258.669,269.970 259.583,270.263 259.529,261.529 258.615,261.382 " />
<polygon points="259.583,270.263 260.332,270.503 260.276,261.649 259.529,261.529 " />
<polygon points="475.390,245.036 474.433,234.305 462.138,238.390 462.138,250.122 " />
<polygon points="474.433,234.305 473.263,221.191 462.139,224.050 462.138,238.390 " />
<polygon points="214.977,68.292 216.150,55.178 203.808,51.081 203.833,65.427 " />
<polygon points="216.150,55.178 217.110,44.448 203.787,39.343 203.808,51.081 " />
<polygon points="214.855,293.957 214.831,302.540 235.549,300.101 237.323,289.475 " />
<polygon points="214.831,302.540 214.802,313.029 233.380,313.087 235.549,300.101 " />
<polygon points="214.802,313.029 214.831,302.540 194.131,299.972 196.217,312.972 " />
<polygon points="214.831,302.540 214.855,293.957 192.425,289.336 194.131,299.972 " />
<polygon points="428.035,71.706 418.177,73.528 416.580,94.324 425.085,94.298 " />
<polygon points="418.177,73.528 406.128,75.756 406.185,94.356 416.580,94.324 " />
<polygon points="406.241,112.956 418.303,115.109 416.580,94.324 406.185,94.356 " />
<polygon points="418.303,115.109 428.171,116.871 425.085,94.298 416.580,94.324 " />
<polygon points="478.067,10.837 467.981,19.885 468.226,31.369 478.074,30.870 " />
<polygon points="420.090,61.042 406.092,63.839 406.128,75.756 418.177,73.528 " />
<polygon points="406.277,124.872 420.292,127.591 418.303,115.109 406.241,112.956 " />
<polygon points="106.039,21.388 116.138,30.374 116.138,10.562 106.296,10.127 " />
<polygon points="132.797,415.584 126.298,415.540 135.066,431.337 140.329,431.372 " />
<polygon points="126.298,415.540 120.650,415.502 130.491,431.306 135.066,431.337 " />
<polygon points="22.936,111.939 29.029,111.299 27.190,92.590 20.458,93.296 " />
<polygon points="29.029,111.299 36.038,110.564 34.936,91.777 27.190,92.590 " />
<polygon points="139.246,476.255 132.209,476.208 131.569,495.345 139.346,495.398 " />
<polygon points="132.209,476.208 126.092,476.166 124.810,495.299 131.569,495.345 " />
<polygon points="139.346,495.398 131.569,495.345 131.730,508.746 139.801,508.802 " />
<polygon points="131.569,495.345 124.810,495.299 124.715,508.698 131.730,508.746 " />
<polygon points="20.458,93.296 27.190,92.590 26.262,79.300 19.273,80.033 " />
<polygon points="27.190,92.590 34.936,91.777 34.302,78.456 26.262,79.300 " />
<polygon points="104.371,375.223 115.046,375.296 116.704,366.198 103.592,366.096 " />
<polygon points="115.046,375.296 127.328,375.379 131.790,366.315 116.704,366.198 " />
<polygon points="126.909,395.460 118.414,395.403 126.298,415.540 132.797,415.584 " />
<polygon points="118.414,395.403 111.031,395.353 120.650,415.502 126.298,415.540 " />
<polygon points="127.328,375.379 115.046,375.296 118.414,395.403 126.909,395.460 " />
<polygon points="115.046,375.296 104.371,375.223 111.031,395.353 118.414,395.403 " />
<polygon points="131.365,361.987 116.021,361.883 116.704,366.198 131.790,366.315 " />
<polygon points="116.021,361.883 102.685,361.792 103.592,366.096 116.704,366.198 " />
<polygon points="130.390,360.805 115.505,360.724 116.021,361.883 131.365,361.987 " />
<polygon points="115.505,360.724 102.567,360.654 102.685,361.792 116.021,361.883 " />
<polygon points="195.660,100.725 195.822,93.677 185.136,89.360 184.165,91.666 " />
<polygon points="195.822,93.677 196.008,85.568 186.253,86.707 185.136,89.360 " />
<polygon points="163.185,84.813 163.011,92.922 172.583,89.072 171.713,86.373 " />
<polygon points="163.011,92.922 162.860,99.970 173.338,91.417 172.583,89.072 " />
<polygon points="61.524,25.217 64.107,25.258 64.065,11.611 61.482,11.570 " />
<polygon points="64.107,25.258 66.352,25.293 66.310,11.646 64.065,11.611 " />
<polygon points="189.387,8.910 187.131,8.953 187.089,22.597 189.345,22.555 " />
<polygon points="187.131,8.953 184.535,9.001 184.493,22.646 187.089,22.597 " />
<polygon points="432.169,414.166 431.255,411.840 429.360,412.757 429.354,416.289 " />
<polygon points="431.255,411.840 430.204,409.164 429.367,408.695 429.360,412.757 " />
<polygon points="444.747,409.183 443.812,411.856 445.812,412.778 445.819,408.716 " />
<polygon points="443.812,411.856 442.998,414.180 445.806,416.310 445.812,412.778 " />
<polygon points="66.345,42.961 66.347,38.908 57.848,41.227 57.845,46.665 " />
<polygon points="66.347,38.908 66.350,35.386 57.851,36.502 57.848,41.227 " />
<polygon points="399.701,244.419 399.700,240.892 391.071,238.750 391.072,243.483 " />
<polygon points="399.700,240.892 399.700,236.833 391.071,233.304 391.071,238.750 " />
<polygon points="369.231,245.332 369.231,240.599 361.684,239.462 361.684,244.195 " />
<polygon points="369.231,240.599 369.230,235.154 361.683,234.017 361.684,239.462 " />
<polygon points="383.448,234.157 383.448,239.602 391.071,238.750 391.071,233.304 " />
<polygon points="383.448,239.602 383.449,244.336 391.072,243.483 391.071,238.750 " />
<polygon points="369.230,235.154 369.231,240.599 383.448,239.602 383.448,234.157 " />
<polygon points="369.231,240.599 369.231,245.332 383.449,244.336 383.448,239.602 " />
<polygon points="113.030,271.973 113.139,267.230 109.929,267.156 110.479,271.914 " />
<polygon points="113.139,267.230 113.264,261.773 109.295,261.681 109.929,267.156 " />
<polygon points="346.014,154.400 347.312,159.693 348.113,159.496 346.740,154.221 " />
<polygon points="347.312,159.693 348.441,164.294 349.306,164.082 348.113,159.496 " />
<polygon points="369.406,102.329 369.344,96.962 361.790,98.193 361.853,103.562 " />
<polygon points="369.344,96.962 369.290,92.299 361.734,93.526 361.790,98.193 " />
<polygon points="383.371,92.806 383.412,97.443 391.117,98.314 391.030,93.583 " />
<polygon points="383.412,97.443 383.458,102.778 391.217,103.757 391.117,98.314 " />
<polygon points="369.290,92.299 369.344,96.962 383.412,97.443 383.371,92.806 " />
<polygon points="369.344,96.962 369.406,102.329 383.458,102.778 383.412,97.443 " />
<polygon points="139.814,441.104 134.142,441.065 132.501,459.483 138.947,459.527 " />
<polygon points="134.142,441.065 129.213,441.032 126.899,459.445 132.501,459.483 " />
<polygon points="140.329,431.372 135.066,431.337 134.142,441.065 139.814,441.104 " />
<polygon points="135.066,431.337 130.491,431.306 129.213,441.032 134.142,441.065 " />
<polygon points="313.845,499.003 329.082,500.767 331.203,478.855 317.269,477.308 " />
<polygon points="329.082,500.767 342.326,502.301 342.901,480.277 331.203,478.855 " />
<polygon points="279.517,335.837 292.448,335.009 289.718,306.933 278.151,307.996 " />
<polygon points="292.448,335.009 307.326,334.057 303.100,305.575 289.718,306.933 " />
<polygon points="278.151,307.996 289.718,306.933 286.627,274.043 279.172,274.680 " />
<polygon points="289.718,306.933 303.100,305.575 295.312,273.114 286.627,274.043 " />
<polygon points="317.269,477.308 331.203,478.855 334.240,446.314 325.047,445.346 " />
<polygon points="331.203,478.855 342.901,480.277 341.629,447.267 334.240,446.314 " />
<polygon points="325.047,445.346 334.240,446.314 337.289,419.675 327.084,418.570 " />
<polygon points="334.240,446.314 341.629,447.267 345.683,420.724 337.289,419.675 " />
<polygon points="279.172,274.680 286.627,274.043 284.016,247.392 275.638,248.137 " />
<polygon points="286.627,274.043 295.312,273.114 293.741,246.380 284.016,247.392 " />
<polygon points="275.638,248.137 284.016,247.392 281.241,217.754 274.823,218.376 " />
<polygon points="284.016,247.392 293.741,246.380 288.625,217.037 281.241,217.754 " />
<polygon points="327.084,418.570 337.289,419.675 339.974,390.376 332.388,389.497 " />
<polygon points="337.289,419.675 345.683,420.724 346.568,391.140 339.974,390.376 " />
<polygon points="332.388,389.497 339.974,390.376 341.954,378.143 326.662,376.372 " />
<polygon points="339.974,390.376 346.568,391.140 355.245,379.682 341.954,378.143 " />
<polygon points="274.823,218.376 281.241,217.754 279.871,205.411 266.934,206.666 " />
<polygon points="281.241,217.754 288.625,217.037 294.755,203.966 279.871,205.411 " />
<polygon points="293.382,194.057 279.551,195.400 279.871,205.411 294.755,203.966 " />
<polygon points="279.551,195.400 267.529,196.566 266.934,206.666 279.871,205.411 " />
<polygon points="292.594,188.362 279.367,189.645 279.551,195.400 293.382,194.057 " />
<polygon points="279.367,189.645 267.871,190.761 267.529,196.566 279.551,195.400 " />
<polygon points="354.642,369.560 342.291,368.130 341.954,378.143 355.245,379.682 " />
<polygon points="342.291,368.130 328.080,366.484 326.662,376.372 341.954,378.143 " />
<polygon points="354.295,363.742 342.484,362.374 342.291,368.130 354.642,369.560 " />
<polygon points="342.484,362.374 328.896,360.800 328.080,366.484 342.291,368.130 " />
<polygon points="267.871,190.761 279.367,189.645 278.011,174.658 270.364,175.401 " />
<polygon points="279.367,189.645 292.594,188.362 286.809,173.805 278.011,174.658 " />
<polygon points="328.896,360.800 342.484,362.374 343.556,347.568 334.517,346.522 " />
<polygon points="342.484,362.374 354.295,363.742 351.412,348.478 343.556,347.568 " />
<polygon points="334.517,346.522 343.556,347.568 343.566,342.779 338.859,342.234 " />
<polygon points="343.556,347.568 351.412,348.478 347.656,343.253 343.566,342.779 " />
<polygon points="270.364,175.401 278.011,174.658 277.631,169.715 273.649,170.101 " />
<polygon points="278.011,174.658 286.809,173.805 282.211,169.271 277.631,169.715 " />
<polygon points="126.086,324.428 120.789,324.392 113.639,336.000 128.939,336.103 " />
<polygon points="120.789,324.392 116.184,324.361 100.341,335.909 113.639,336.000 " />
<polygon points="116.184,324.361 120.789,324.392 106.033,304.984 103.895,304.256 " />
<polygon points="298.374,28.946 301.976,32.863 302.034,10.693 296.832,11.591 " />
<polygon points="492.845,4.429 488.362,4.457 488.184,19.814 490.861,19.432 " />
<polygon points="488.362,4.457 484.465,4.482 485.857,20.146 488.184,19.814 " />
<polygon points="491.320,335.563 495.790,335.709 494.365,319.965 492.431,320.659 " />
<polygon points="495.790,335.709 499.676,335.837 496.046,319.362 494.365,319.965 " />
<polygon points="501.304,346.071 497.926,347.941 500.114,370.619 501.303,370.203 " />
<polygon points="497.926,347.941 494.039,350.094 498.746,371.097 500.114,370.619 " />
<polygon points="387.635,5.636 385.982,5.635 386.065,12.087 386.565,12.087 " />
<polygon points="385.982,5.635 384.080,5.633 385.489,12.086 386.065,12.087 " />
<polygon points="492.431,320.659 494.365,319.965 491.948,313.348 491.363,313.558 " />
<polygon points="494.365,319.965 496.046,319.362 492.457,313.166 491.948,313.348 " />
<polygon points="491.363,313.558 491.948,313.348 492.073,312.124 491.359,312.379 " />
<polygon points="491.948,313.348 492.457,313.166 492.693,311.901 492.073,312.124 " />
<polygon points="386.565,12.087 386.065,12.087 384.964,13.790 385.479,13.790 " />
<polygon points="386.065,12.087 385.489,12.086 384.371,13.789 384.964,13.790 " />
<polygon points="125.132,272.252 125.240,267.508 113.139,267.230 113.030,271.973 " />
<polygon points="125.240,267.508 125.366,262.051 113.264,261.773 113.139,267.230 " />
<polygon points="137.727,272.541 137.836,267.798 125.240,267.508 125.132,272.252 " />
<polygon points="137.836,267.798 137.961,262.341 125.366,262.051 125.240,267.508 " />
<polygon points="126.500,467.722 132.356,467.762 132.501,459.483 126.899,459.445 " />
<polygon points="132.356,467.762 139.095,467.807 138.947,459.527 132.501,459.483 " />
<polygon points="126.092,476.166 132.209,476.208 132.356,467.762 126.500,467.722 " />
<polygon points="132.209,476.208 139.246,476.255 139.095,467.807 132.356,467.762 " />
<polygon points="286.447,34.869 276.434,29.422 276.787,41.523 " />
<polygon points="286.644,41.637 286.447,34.869 276.787,41.523 " />
<polygon points="286.447,34.869 286.275,28.986 276.434,29.422 " />
<polygon points="36.038,110.564 29.029,111.299 29.565,119.512 36.277,118.808 " />
<polygon points="29.029,111.299 22.936,111.939 23.731,120.124 29.565,119.512 " />
<polygon points="124.534,294.788 128.425,294.815 126.059,283.849 " />
<polygon points="128.425,294.815 132.901,294.845 126.059,283.849 " />
<polygon points="259.589,277.141 259.561,281.196 260.310,281.011 260.337,276.900 " />
<polygon points="259.561,281.196 259.529,285.862 260.277,285.741 260.310,281.011 " />
<polygon points="258.673,277.436 258.646,281.423 259.561,281.196 259.589,277.141 " />
<polygon points="258.646,281.423 258.615,286.011 259.529,285.862 259.561,281.196 " />
</g>
</svg>